<svg xmlns="http://www.w3.org/2000/svg" xmlns:xlink="http://www.w3.org/1999/xlink" width="1017" zoomAndPan="magnify" viewBox="0 0 762.75 799.499971" height="1066" preserveAspectRatio="xMidYMid meet" version="1.0"><defs><clipPath id="230617cb68"><path d="M 0.1875 300 L 292 300 L 292 781.585938 L 0.1875 781.585938 Z M 0.1875 300 " clip-rule="nonzero"/></clipPath><clipPath id="6a00242e71"><path d="M 3 0.6875 L 289 0.6875 L 289 481 L 3 481 Z M 3 0.6875 " clip-rule="nonzero"/></clipPath><clipPath id="74ba0ff493"><rect x="0" width="292" y="0" height="482"/></clipPath><clipPath id="284ab6fde9"><path d="M 453 1 L 744.921875 1 L 744.921875 240.59375 L 453 240.59375 Z M 453 1 " clip-rule="nonzero"/></clipPath><clipPath id="23c4218e45"><path d="M 3 0.113281 L 289 0.113281 L 289 239.59375 L 3 239.59375 Z M 3 0.113281 " clip-rule="nonzero"/></clipPath><clipPath id="99967cf6c4"><rect x="0" width="292" y="0" height="240"/></clipPath><clipPath id="7a8c4d7597"><path d="M 453 302.066406 L 744.921875 302.066406 L 744.921875 482 L 453 482 Z M 453 302.066406 " clip-rule="nonzero"/></clipPath><clipPath id="c9c1300ae6"><path d="M 3 0.0664062 L 289 0.0664062 L 289 179 L 3 179 Z M 3 0.0664062 " clip-rule="nonzero"/></clipPath><clipPath id="45d0b99331"><rect x="0" width="292" y="0" height="180"/></clipPath><clipPath id="8e14ca9c35"><rect x="0" width="745" y="0" height="782"/></clipPath></defs><g transform="matrix(1, 0, 0, 1, 10, 8)"><g clip-path="url(#8e14ca9c35)"><g clip-path="url(#230617cb68)"><g transform="matrix(1, 0, 0, 1, -0.000000000000001776, 300)"><g clip-path="url(#74ba0ff493)"><g clip-path="url(#6a00242e71)"><path fill="#ff8f22" d="M 288.648438 480.632812 C 231.976562 320.484375 175.453125 160.804688 118.878906 0.96875 C 80.484375 0.957031 42.125 0.957031 3.140625 0.957031 C 6.578125 10.683594 9.957031 20.253906 13.347656 29.820312 C 65.839844 178.164062 118.34375 326.5 170.714844 474.878906 C 172.300781 479.34375 174.117188 480.742188 178.808594 480.742188 C 213.519531 480.492188 248.277344 480.617188 283.027344 480.617188 L 288.648438 480.617188 " fill-opacity="1" fill-rule="nonzero"/></g></g></g></g><path fill="#1097af" d="M 177.40625 780.609375 C 234.105469 620.390625 290.65625 460.636719 347.253906 300.726562 C 385.667969 300.71875 424.042969 300.71875 463.046875 300.71875 C 459.605469 310.445312 456.226562 320.019531 452.835938 329.589844 C 400.316406 478.003906 347.789062 626.410156 295.394531 774.855469 C 293.804688 779.324219 291.988281 780.71875 287.296875 780.71875 C 252.570312 780.46875 217.792969 780.59375 183.03125 780.59375 L 177.40625 780.59375 " fill-opacity="1" fill-rule="nonzero"/><path fill="#1097af" d="M 283.199219 481.121094 C 339.871094 320.972656 396.394531 161.292969 452.96875 1.457031 C 491.363281 1.445312 529.722656 1.445312 568.707031 1.445312 C 565.269531 11.171875 561.890625 20.742188 558.5 30.308594 C 506.007812 178.652344 453.503906 326.988281 401.132812 475.367188 C 399.546875 479.832031 397.730469 481.230469 393.039062 481.230469 C 358.328125 480.980469 323.570312 481.105469 288.820312 481.105469 L 283.199219 481.105469 " fill-opacity="1" fill-rule="nonzero"/><g clip-path="url(#284ab6fde9)"><g transform="matrix(1, 0, 0, 1, 453, 1)"><g clip-path="url(#99967cf6c4)"><g clip-path="url(#23c4218e45)"><path fill="#00daf2" d="M 288.699219 480.121094 C 232.027344 319.972656 175.503906 160.292969 118.929688 0.457031 C 80.535156 0.445312 42.179688 0.445312 3.191406 0.445312 C 6.628906 10.171875 10.007812 19.742188 13.398438 29.308594 C 65.890625 177.652344 118.398438 325.988281 170.765625 474.367188 C 172.355469 478.832031 174.171875 480.230469 178.859375 480.230469 C 213.570312 479.980469 248.332031 480.105469 283.078125 480.105469 L 288.699219 480.105469 " fill-opacity="1" fill-rule="nonzero"/></g></g></g></g><g clip-path="url(#7a8c4d7597)"><g transform="matrix(1, 0, 0, 1, 453, 302)"><g clip-path="url(#45d0b99331)"><g clip-path="url(#c9c1300ae6)"><path fill="#00daf2" d="M 288.699219 178.851562 C 232.027344 18.707031 175.503906 -140.976562 118.929688 -300.8125 C 80.535156 -300.820312 42.179688 -300.820312 3.191406 -300.820312 C 6.628906 -291.09375 10.007812 -281.527344 13.398438 -271.960938 C 65.890625 -123.613281 118.398438 24.722656 170.765625 173.101562 C 172.355469 177.566406 174.171875 178.960938 178.859375 178.960938 C 213.570312 178.714844 248.332031 178.835938 283.078125 178.835938 L 288.699219 178.835938 " fill-opacity="1" fill-rule="nonzero"/></g></g></g></g></g></g></svg>