<svg xmlns="http://www.w3.org/2000/svg" xmlns:xlink="http://www.w3.org/1999/xlink" width="1315" zoomAndPan="magnify" viewBox="0 0 986.25 292.499991" height="390" preserveAspectRatio="xMidYMid meet" version="1.0"><defs><filter x="0%" y="0%" width="100%" height="100%" id="d95c1c5a73"><feColorMatrix values="0 0 0 0 1 0 0 0 0 1 0 0 0 0 1 0 0 0 1 0" color-interpolation-filters="sRGB"/></filter><g/><clipPath id="b8da451e73"><path d="M 1 0.328125 L 75 0.328125 L 75 123.476562 L 1 123.476562 Z M 1 0.328125 " clip-rule="nonzero"/></clipPath><clipPath id="0674b1941b"><rect x="0" width="76" y="0" height="124"/></clipPath><clipPath id="d796f1d431"><path d="M 118 59 L 194 59 L 194 120.949219 L 118 120.949219 Z M 118 59 " clip-rule="nonzero"/></clipPath><clipPath id="2e22e1e185"><path d="M 1 0.65625 L 75 0.65625 L 75 61.949219 L 1 61.949219 Z M 1 0.65625 " clip-rule="nonzero"/></clipPath><clipPath id="934ca43bfd"><rect x="0" width="76" y="0" height="62"/></clipPath><clipPath id="e590caf8a4"><path d="M 118 136.683594 L 194 136.683594 L 194 183 L 118 183 Z M 118 136.683594 " clip-rule="nonzero"/></clipPath><clipPath id="6a0b094cdb"><path d="M 1 0.683594 L 75 0.683594 L 75 46.808594 L 1 46.808594 Z M 1 0.683594 " clip-rule="nonzero"/></clipPath><clipPath id="0640427e6d"><rect x="0" width="76" y="0" height="47"/></clipPath><clipPath id="6260064de5"><path d="M 136 0 L 985.035156 0 L 985.035156 292 L 136 292 Z M 136 0 " clip-rule="nonzero"/></clipPath><clipPath id="d46304f2e0"><path d="M 0.371094 0 L 849.035156 0 L 849.035156 292 L 0.371094 292 Z M 0.371094 0 " clip-rule="nonzero"/></clipPath><clipPath id="9146450164"><path d="M 0.371094 0 L 849.035156 0 L 849.035156 292 L 0.371094 292 Z M 0.371094 0 " clip-rule="nonzero"/></clipPath><clipPath id="57fa81766a"><path d="M 71.433594 0 L 849.035156 0 L 849.035156 292 L 71.433594 292 Z M 71.433594 0 " clip-rule="nonzero"/></clipPath><linearGradient x1="-179.983976" gradientTransform="matrix(0.935252, 0, 0, 0.934981, 239.76217, 15.200597)" y1="89.5" x2="651.452052" gradientUnits="userSpaceOnUse" y2="89.5" id="8004cc6501"><stop stop-opacity="1" stop-color="rgb(100%, 55.288696%, 9.01947%)" offset="0"/><stop stop-opacity="1" stop-color="rgb(100%, 55.288696%, 9.01947%)" offset="0.25"/><stop stop-opacity="1" stop-color="rgb(100%, 55.288696%, 9.01947%)" offset="0.28125"/><stop stop-opacity="1" stop-color="rgb(100%, 55.288696%, 9.01947%)" offset="0.296875"/><stop stop-opacity="1" stop-color="rgb(100%, 55.288696%, 9.01947%)" offset="0.304687"/><stop stop-opacity="1" stop-color="rgb(100%, 55.328369%, 9.254456%)" offset="0.308594"/><stop stop-opacity="1" stop-color="rgb(100%, 55.368042%, 9.490967%)" offset="0.3125"/><stop stop-opacity="1" stop-color="rgb(100%, 55.435181%, 9.890747%)" offset="0.316406"/><stop stop-opacity="1" stop-color="rgb(100%, 55.502319%, 10.292053%)" offset="0.320312"/><stop stop-opacity="1" stop-color="rgb(100%, 55.567932%, 10.691833%)" offset="0.324219"/><stop stop-opacity="1" stop-color="rgb(100%, 55.635071%, 11.09314%)" offset="0.328125"/><stop stop-opacity="1" stop-color="rgb(100%, 55.702209%, 11.49292%)" offset="0.332031"/><stop stop-opacity="1" stop-color="rgb(100%, 55.769348%, 11.894226%)" offset="0.335937"/><stop stop-opacity="1" stop-color="rgb(100%, 55.834961%, 12.294006%)" offset="0.339844"/><stop stop-opacity="1" stop-color="rgb(100%, 55.9021%, 12.695312%)" offset="0.34375"/><stop stop-opacity="1" stop-color="rgb(100%, 55.969238%, 13.095093%)" offset="0.347656"/><stop stop-opacity="1" stop-color="rgb(100%, 56.036377%, 13.496399%)" offset="0.351562"/><stop stop-opacity="1" stop-color="rgb(100%, 56.103516%, 13.896179%)" offset="0.355469"/><stop stop-opacity="1" stop-color="rgb(100%, 56.170654%, 14.297485%)" offset="0.359375"/><stop stop-opacity="1" stop-color="rgb(100%, 56.236267%, 14.698792%)" offset="0.363281"/><stop stop-opacity="1" stop-color="rgb(100%, 56.303406%, 15.100098%)" offset="0.367187"/><stop stop-opacity="1" stop-color="rgb(100%, 56.370544%, 15.499878%)" offset="0.371094"/><stop stop-opacity="1" stop-color="rgb(100%, 56.437683%, 15.901184%)" offset="0.375"/><stop stop-opacity="1" stop-color="rgb(100%, 56.503296%, 16.300964%)" offset="0.378906"/><stop stop-opacity="1" stop-color="rgb(100%, 56.570435%, 16.702271%)" offset="0.382812"/><stop stop-opacity="1" stop-color="rgb(100%, 56.637573%, 17.102051%)" offset="0.386719"/><stop stop-opacity="1" stop-color="rgb(100%, 56.704712%, 17.503357%)" offset="0.390625"/><stop stop-opacity="1" stop-color="rgb(100%, 56.771851%, 17.903137%)" offset="0.394531"/><stop stop-opacity="1" stop-color="rgb(100%, 56.838989%, 18.304443%)" offset="0.398437"/><stop stop-opacity="1" stop-color="rgb(100%, 56.904602%, 18.704224%)" offset="0.402344"/><stop stop-opacity="1" stop-color="rgb(100%, 56.971741%, 19.10553%)" offset="0.40625"/><stop stop-opacity="1" stop-color="rgb(100%, 57.038879%, 19.50531%)" offset="0.410156"/><stop stop-opacity="1" stop-color="rgb(100%, 57.106018%, 19.906616%)" offset="0.414062"/><stop stop-opacity="1" stop-color="rgb(100%, 57.171631%, 20.306396%)" offset="0.417969"/><stop stop-opacity="1" stop-color="rgb(100%, 57.23877%, 20.707703%)" offset="0.421875"/><stop stop-opacity="1" stop-color="rgb(100%, 57.305908%, 21.107483%)" offset="0.425781"/><stop stop-opacity="1" stop-color="rgb(100%, 57.373047%, 21.508789%)" offset="0.429688"/><stop stop-opacity="1" stop-color="rgb(100%, 57.440186%, 21.908569%)" offset="0.433594"/><stop stop-opacity="1" stop-color="rgb(100%, 57.507324%, 22.309875%)" offset="0.4375"/><stop stop-opacity="1" stop-color="rgb(100%, 57.572937%, 22.709656%)" offset="0.441406"/><stop stop-opacity="1" stop-color="rgb(100%, 57.640076%, 23.110962%)" offset="0.445312"/><stop stop-opacity="1" stop-color="rgb(100%, 57.707214%, 23.510742%)" offset="0.449219"/><stop stop-opacity="1" stop-color="rgb(100%, 57.774353%, 23.912048%)" offset="0.453125"/><stop stop-opacity="1" stop-color="rgb(100%, 57.839966%, 24.311829%)" offset="0.457031"/><stop stop-opacity="1" stop-color="rgb(100%, 57.907104%, 24.713135%)" offset="0.460938"/><stop stop-opacity="1" stop-color="rgb(100%, 57.974243%, 25.114441%)" offset="0.464844"/><stop stop-opacity="1" stop-color="rgb(100%, 58.041382%, 25.515747%)" offset="0.46875"/><stop stop-opacity="1" stop-color="rgb(100%, 58.108521%, 25.915527%)" offset="0.472656"/><stop stop-opacity="1" stop-color="rgb(100%, 58.175659%, 26.316833%)" offset="0.476562"/><stop stop-opacity="1" stop-color="rgb(100%, 58.241272%, 26.716614%)" offset="0.480469"/><stop stop-opacity="1" stop-color="rgb(100%, 58.308411%, 27.11792%)" offset="0.484375"/><stop stop-opacity="1" stop-color="rgb(100%, 58.375549%, 27.5177%)" offset="0.488281"/><stop stop-opacity="1" stop-color="rgb(100%, 58.442688%, 27.919006%)" offset="0.492188"/><stop stop-opacity="1" stop-color="rgb(100%, 58.508301%, 28.318787%)" offset="0.496094"/><stop stop-opacity="1" stop-color="rgb(100%, 58.575439%, 28.720093%)" offset="0.5"/><stop stop-opacity="1" stop-color="rgb(100%, 58.642578%, 29.119873%)" offset="0.503906"/><stop stop-opacity="1" stop-color="rgb(100%, 58.709717%, 29.521179%)" offset="0.507812"/><stop stop-opacity="1" stop-color="rgb(100%, 58.776855%, 29.920959%)" offset="0.511719"/><stop stop-opacity="1" stop-color="rgb(100%, 58.843994%, 30.322266%)" offset="0.515625"/><stop stop-opacity="1" stop-color="rgb(100%, 58.909607%, 30.722046%)" offset="0.519531"/><stop stop-opacity="1" stop-color="rgb(100%, 58.976746%, 31.123352%)" offset="0.523438"/><stop stop-opacity="1" stop-color="rgb(100%, 59.043884%, 31.523132%)" offset="0.527344"/><stop stop-opacity="1" stop-color="rgb(100%, 59.111023%, 31.924438%)" offset="0.53125"/><stop stop-opacity="1" stop-color="rgb(100%, 59.178162%, 32.324219%)" offset="0.535156"/><stop stop-opacity="1" stop-color="rgb(100%, 59.2453%, 32.725525%)" offset="0.539062"/><stop stop-opacity="1" stop-color="rgb(100%, 59.310913%, 33.125305%)" offset="0.542969"/><stop stop-opacity="1" stop-color="rgb(100%, 59.378052%, 33.526611%)" offset="0.546875"/><stop stop-opacity="1" stop-color="rgb(100%, 59.44519%, 33.926392%)" offset="0.550781"/><stop stop-opacity="1" stop-color="rgb(100%, 59.512329%, 34.327698%)" offset="0.554688"/><stop stop-opacity="1" stop-color="rgb(100%, 59.577942%, 34.729004%)" offset="0.558594"/><stop stop-opacity="1" stop-color="rgb(100%, 59.645081%, 35.13031%)" offset="0.5625"/><stop stop-opacity="1" stop-color="rgb(100%, 59.712219%, 35.53009%)" offset="0.566406"/><stop stop-opacity="1" stop-color="rgb(100%, 59.779358%, 35.931396%)" offset="0.570312"/><stop stop-opacity="1" stop-color="rgb(100%, 59.846497%, 36.331177%)" offset="0.574219"/><stop stop-opacity="1" stop-color="rgb(100%, 59.913635%, 36.732483%)" offset="0.578125"/><stop stop-opacity="1" stop-color="rgb(99.49646%, 60.067749%, 37.287903%)" offset="0.582031"/><stop stop-opacity="1" stop-color="rgb(98.99292%, 60.223389%, 37.844849%)" offset="0.585938"/><stop stop-opacity="1" stop-color="rgb(97.573853%, 60.540771%, 38.685608%)" offset="0.589844"/><stop stop-opacity="1" stop-color="rgb(96.154785%, 60.858154%, 39.526367%)" offset="0.59375"/><stop stop-opacity="1" stop-color="rgb(94.735718%, 61.175537%, 40.365601%)" offset="0.597656"/><stop stop-opacity="1" stop-color="rgb(93.31665%, 61.49292%, 41.20636%)" offset="0.601562"/><stop stop-opacity="1" stop-color="rgb(91.897583%, 61.810303%, 42.047119%)" offset="0.605469"/><stop stop-opacity="1" stop-color="rgb(90.478516%, 62.127686%, 42.887878%)" offset="0.609375"/><stop stop-opacity="1" stop-color="rgb(89.059448%, 62.443542%, 43.727112%)" offset="0.613281"/><stop stop-opacity="1" stop-color="rgb(87.640381%, 62.760925%, 44.567871%)" offset="0.617188"/><stop stop-opacity="1" stop-color="rgb(86.221313%, 63.078308%, 45.40863%)" offset="0.621094"/><stop stop-opacity="1" stop-color="rgb(84.802246%, 63.395691%, 46.24939%)" offset="0.625"/><stop stop-opacity="1" stop-color="rgb(83.383179%, 63.713074%, 47.088623%)" offset="0.628906"/><stop stop-opacity="1" stop-color="rgb(81.964111%, 64.030457%, 47.929382%)" offset="0.632812"/><stop stop-opacity="1" stop-color="rgb(80.545044%, 64.346313%, 48.770142%)" offset="0.636719"/><stop stop-opacity="1" stop-color="rgb(79.125977%, 64.663696%, 49.610901%)" offset="0.640625"/><stop stop-opacity="1" stop-color="rgb(77.706909%, 64.981079%, 50.450134%)" offset="0.644531"/><stop stop-opacity="1" stop-color="rgb(76.287842%, 65.298462%, 51.290894%)" offset="0.648437"/><stop stop-opacity="1" stop-color="rgb(74.868774%, 65.615845%, 52.131653%)" offset="0.652344"/><stop stop-opacity="1" stop-color="rgb(73.449707%, 65.933228%, 52.972412%)" offset="0.65625"/><stop stop-opacity="1" stop-color="rgb(72.03064%, 66.25061%, 53.811646%)" offset="0.660156"/><stop stop-opacity="1" stop-color="rgb(70.611572%, 66.567993%, 54.652405%)" offset="0.664062"/><stop stop-opacity="1" stop-color="rgb(69.192505%, 66.88385%, 55.493164%)" offset="0.667969"/><stop stop-opacity="1" stop-color="rgb(67.773438%, 67.201233%, 56.333923%)" offset="0.671875"/><stop stop-opacity="1" stop-color="rgb(66.35437%, 67.518616%, 57.173157%)" offset="0.675781"/><stop stop-opacity="1" stop-color="rgb(64.935303%, 67.835999%, 58.013916%)" offset="0.679687"/><stop stop-opacity="1" stop-color="rgb(63.516235%, 68.153381%, 58.854675%)" offset="0.683594"/><stop stop-opacity="1" stop-color="rgb(62.097168%, 68.470764%, 59.695435%)" offset="0.6875"/><stop stop-opacity="1" stop-color="rgb(60.678101%, 68.786621%, 60.534668%)" offset="0.691406"/><stop stop-opacity="1" stop-color="rgb(59.259033%, 69.104004%, 61.375427%)" offset="0.695312"/><stop stop-opacity="1" stop-color="rgb(57.839966%, 69.421387%, 62.216187%)" offset="0.699219"/><stop stop-opacity="1" stop-color="rgb(56.420898%, 69.73877%, 63.056946%)" offset="0.703125"/><stop stop-opacity="1" stop-color="rgb(55.001831%, 70.056152%, 63.896179%)" offset="0.707031"/><stop stop-opacity="1" stop-color="rgb(53.582764%, 70.373535%, 64.736938%)" offset="0.710938"/><stop stop-opacity="1" stop-color="rgb(52.163696%, 70.690918%, 65.577698%)" offset="0.714844"/><stop stop-opacity="1" stop-color="rgb(50.744629%, 71.008301%, 66.418457%)" offset="0.71875"/><stop stop-opacity="1" stop-color="rgb(49.325562%, 71.324158%, 67.25769%)" offset="0.722656"/><stop stop-opacity="1" stop-color="rgb(47.906494%, 71.641541%, 68.09845%)" offset="0.726562"/><stop stop-opacity="1" stop-color="rgb(46.487427%, 71.958923%, 68.939209%)" offset="0.730469"/><stop stop-opacity="1" stop-color="rgb(45.068359%, 72.276306%, 69.779968%)" offset="0.734375"/><stop stop-opacity="1" stop-color="rgb(43.649292%, 72.593689%, 70.619202%)" offset="0.738281"/><stop stop-opacity="1" stop-color="rgb(42.230225%, 72.911072%, 71.459961%)" offset="0.742188"/><stop stop-opacity="1" stop-color="rgb(40.811157%, 73.226929%, 72.30072%)" offset="0.746094"/><stop stop-opacity="1" stop-color="rgb(39.39209%, 73.544312%, 73.141479%)" offset="0.75"/><stop stop-opacity="1" stop-color="rgb(37.973022%, 73.861694%, 73.980713%)" offset="0.753906"/><stop stop-opacity="1" stop-color="rgb(36.553955%, 74.179077%, 74.821472%)" offset="0.757812"/><stop stop-opacity="1" stop-color="rgb(35.134888%, 74.49646%, 75.662231%)" offset="0.761719"/><stop stop-opacity="1" stop-color="rgb(33.71582%, 74.813843%, 76.502991%)" offset="0.765625"/><stop stop-opacity="1" stop-color="rgb(32.296753%, 75.131226%, 77.342224%)" offset="0.769531"/><stop stop-opacity="1" stop-color="rgb(30.877686%, 75.448608%, 78.182983%)" offset="0.773437"/><stop stop-opacity="1" stop-color="rgb(29.458618%, 75.764465%, 79.023743%)" offset="0.777344"/><stop stop-opacity="1" stop-color="rgb(28.039551%, 76.081848%, 79.864502%)" offset="0.78125"/><stop stop-opacity="1" stop-color="rgb(26.620483%, 76.399231%, 80.703735%)" offset="0.785156"/><stop stop-opacity="1" stop-color="rgb(25.201416%, 76.716614%, 81.544495%)" offset="0.789062"/><stop stop-opacity="1" stop-color="rgb(23.782349%, 77.033997%, 82.385254%)" offset="0.792969"/><stop stop-opacity="1" stop-color="rgb(22.363281%, 77.351379%, 83.226013%)" offset="0.796875"/><stop stop-opacity="1" stop-color="rgb(20.944214%, 77.667236%, 84.065247%)" offset="0.800781"/><stop stop-opacity="1" stop-color="rgb(19.525146%, 77.984619%, 84.906006%)" offset="0.804687"/><stop stop-opacity="1" stop-color="rgb(18.106079%, 78.302002%, 85.746765%)" offset="0.808594"/><stop stop-opacity="1" stop-color="rgb(16.687012%, 78.619385%, 86.587524%)" offset="0.8125"/><stop stop-opacity="1" stop-color="rgb(15.267944%, 78.936768%, 87.426758%)" offset="0.816406"/><stop stop-opacity="1" stop-color="rgb(13.848877%, 79.25415%, 88.267517%)" offset="0.820312"/><stop stop-opacity="1" stop-color="rgb(12.42981%, 79.571533%, 89.108276%)" offset="0.824219"/><stop stop-opacity="1" stop-color="rgb(11.010742%, 79.888916%, 89.949036%)" offset="0.828125"/><stop stop-opacity="1" stop-color="rgb(9.591675%, 80.204773%, 90.788269%)" offset="0.832031"/><stop stop-opacity="1" stop-color="rgb(8.172607%, 80.522156%, 91.629028%)" offset="0.835938"/><stop stop-opacity="1" stop-color="rgb(6.75354%, 80.839539%, 92.469788%)" offset="0.839844"/><stop stop-opacity="1" stop-color="rgb(5.334473%, 81.156921%, 93.310547%)" offset="0.84375"/><stop stop-opacity="1" stop-color="rgb(3.915405%, 81.474304%, 94.14978%)" offset="0.847656"/><stop stop-opacity="1" stop-color="rgb(2.496338%, 81.791687%, 94.99054%)" offset="0.851562"/><stop stop-opacity="1" stop-color="rgb(1.248169%, 82.069397%, 95.729065%)" offset="0.855469"/><stop stop-opacity="1" stop-color="rgb(0%, 82.348633%, 96.469116%)" offset="0.859375"/><stop stop-opacity="1" stop-color="rgb(0%, 82.348633%, 96.469116%)" offset="0.875"/><stop stop-opacity="1" stop-color="rgb(0%, 82.348633%, 96.469116%)" offset="1"/></linearGradient><clipPath id="9b2adb55f1"><rect x="0" width="850" y="0" height="292"/></clipPath><clipPath id="901f4827f7"><path d="M 0.371094 0 L 849.035156 0 L 849.035156 292 L 0.371094 292 Z M 0.371094 0 " clip-rule="nonzero"/></clipPath><clipPath id="86a441234f"><rect x="0" width="850" y="0" height="292"/></clipPath><clipPath id="0824dadf05"><rect x="0" width="850" y="0" height="292"/></clipPath><mask id="ccea9fc8e9"><g filter="url(#d95c1c5a73)"><g transform="matrix(1, 0, 0, 1, -0.000000000000028422, 0)"><g clip-path="url(#0824dadf05)"><g clip-path="url(#901f4827f7)"><g transform="matrix(1, 0, 0, 1, -0.000000000000028422, 0)"><g clip-path="url(#86a441234f)"><g fill="#000000" fill-opacity="1"><g transform="translate(310.805271, 138.61871)"><g><path d="M 38.421875 0 C 37.054688 0 35.894531 -0.414062 34.9375 -1.25 C 33.988281 -2.09375 33.351562 -3.191406 33.03125 -4.546875 L 19.03125 -79.703125 C 18.707031 -81.617188 19.023438 -83.171875 19.984375 -84.359375 C 20.941406 -85.554688 22.378906 -86.15625 24.296875 -86.15625 L 35.1875 -86.15625 C 36.625 -86.15625 37.859375 -85.71875 38.890625 -84.84375 C 39.929688 -83.96875 40.488281 -82.851562 40.5625 -81.5 L 50.015625 -23.09375 L 80.78125 -83.171875 C 81.8125 -85.160156 83.445312 -86.15625 85.6875 -86.15625 L 97.171875 -86.15625 C 99.890625 -86.15625 101.6875 -85.414062 102.5625 -83.9375 C 103.4375 -82.46875 103.234375 -80.535156 101.953125 -78.140625 L 61.390625 -2.875 C 60.273438 -0.957031 58.640625 0 56.484375 0 Z M 38.421875 0 "/></g></g></g><g fill="#000000" fill-opacity="1"><g transform="translate(400.08614, 138.61871)"><g><path d="M 11.125 0 C 8.414062 0 6.617188 -0.734375 5.734375 -2.203125 C 4.859375 -3.679688 5.101562 -5.660156 6.46875 -8.140625 L 48.953125 -83.296875 C 50.066406 -85.203125 51.660156 -86.15625 53.734375 -86.15625 L 72.515625 -86.15625 C 73.878906 -86.15625 75.035156 -85.753906 75.984375 -84.953125 C 76.941406 -84.160156 77.582031 -83.085938 77.90625 -81.734375 L 93.9375 -6.578125 C 94.34375 -4.585938 94.066406 -2.992188 93.109375 -1.796875 C 92.148438 -0.597656 90.632812 0 88.5625 0 L 77.3125 0 C 75.957031 0 74.78125 -0.414062 73.78125 -1.25 C 72.78125 -2.09375 72.160156 -3.191406 71.921875 -4.546875 L 69.40625 -17.828125 L 34.9375 -17.828125 L 26.8125 -2.984375 C 26.40625 -2.109375 25.742188 -1.390625 24.828125 -0.828125 C 23.910156 -0.273438 22.9375 0 21.90625 0 Z M 43.921875 -34.34375 L 66.171875 -34.34375 L 60.4375 -64.5 Z M 43.921875 -34.34375 "/></g></g></g><g fill="#000000" fill-opacity="1"><g transform="translate(505.882773, 138.61871)"><g><path d="M 14.59375 0 C 12.601562 0 11.109375 -0.578125 10.109375 -1.734375 C 9.109375 -2.890625 8.769531 -4.425781 9.09375 -6.34375 L 22.375 -81.609375 C 22.695312 -82.972656 23.335938 -84.070312 24.296875 -84.90625 C 25.253906 -85.738281 26.410156 -86.15625 27.765625 -86.15625 L 38.65625 -86.15625 C 40.644531 -86.15625 42.140625 -85.578125 43.140625 -84.421875 C 44.140625 -83.265625 44.476562 -81.734375 44.15625 -79.828125 L 30.875 -4.546875 C 30.550781 -3.191406 29.910156 -2.09375 28.953125 -1.25 C 28.003906 -0.414062 26.847656 0 25.484375 0 Z M 14.59375 0 "/></g></g></g><g fill="#000000" fill-opacity="1"><g transform="translate(552.557738, 138.61871)"><g><path d="M 7.421875 -13.640625 C 6.785156 -14.921875 6.765625 -16.140625 7.359375 -17.296875 C 7.953125 -18.453125 8.96875 -19.269531 10.40625 -19.75 L 20.703125 -23.21875 C 22.054688 -23.613281 23.3125 -23.613281 24.46875 -23.21875 C 25.625 -22.820312 26.679688 -22.179688 27.640625 -21.296875 C 28.753906 -20.023438 30.445312 -18.75 32.71875 -17.46875 C 35 -16.195312 38.210938 -15.5625 42.359375 -15.5625 C 44.671875 -15.5625 47.0625 -15.898438 49.53125 -16.578125 C 52.007812 -17.253906 54.085938 -18.410156 55.765625 -20.046875 C 57.441406 -21.679688 58.28125 -23.894531 58.28125 -26.6875 C 58.28125 -28.84375 57.125 -30.617188 54.8125 -32.015625 C 52.5 -33.410156 48.628906 -34.625 43.203125 -35.65625 C 36.335938 -37.019531 30.890625 -38.859375 26.859375 -41.171875 C 22.835938 -43.484375 19.96875 -46.15625 18.25 -49.1875 C 16.53125 -52.21875 15.671875 -55.410156 15.671875 -58.765625 C 15.671875 -64.109375 16.785156 -68.65625 19.015625 -72.40625 C 21.253906 -76.15625 24.226562 -79.1875 27.9375 -81.5 C 31.65625 -83.8125 35.804688 -85.484375 40.390625 -86.515625 C 44.972656 -87.554688 49.617188 -88.078125 54.328125 -88.078125 C 61.984375 -88.078125 68.222656 -86.71875 73.046875 -84 C 77.878906 -81.289062 81.414062 -78.144531 83.65625 -74.5625 C 84.53125 -73.195312 84.644531 -71.914062 84 -70.71875 C 83.363281 -69.53125 82.25 -68.65625 80.65625 -68.09375 L 70.71875 -64.859375 C 69.445312 -64.378906 68.210938 -64.359375 67.015625 -64.796875 C 65.816406 -65.234375 64.738281 -65.8125 63.78125 -66.53125 C 62.820312 -67.65625 61.484375 -68.613281 59.765625 -69.40625 C 58.054688 -70.207031 55.6875 -70.609375 52.65625 -70.609375 C 50.65625 -70.609375 48.519531 -70.328125 46.25 -69.765625 C 43.976562 -69.210938 42.046875 -68.238281 40.453125 -66.84375 C 38.859375 -65.445312 38.0625 -63.46875 38.0625 -60.90625 C 38.0625 -58.914062 39.132812 -57.160156 41.28125 -55.640625 C 43.4375 -54.128906 47.304688 -52.9375 52.890625 -52.0625 C 61.671875 -50.625 68.492188 -48.066406 73.359375 -44.390625 C 78.222656 -40.722656 80.65625 -35.660156 80.65625 -29.203125 C 80.65625 -23.535156 79.5 -18.726562 77.1875 -14.78125 C 74.875 -10.832031 71.757812 -7.617188 67.84375 -5.140625 C 63.9375 -2.671875 59.570312 -0.878906 54.75 0.234375 C 49.925781 1.359375 45 1.921875 39.96875 1.921875 C 33.664062 1.921875 28.320312 1.144531 23.9375 -0.40625 C 19.550781 -1.96875 16.019531 -3.945312 13.34375 -6.34375 C 10.664062 -8.738281 8.691406 -11.171875 7.421875 -13.640625 Z M 7.421875 -13.640625 "/></g></g></g><g fill="#000000" fill-opacity="1"><g transform="translate(641.479566, 138.61871)"><g><path d="M 13.765625 0 C 11.765625 0 10.265625 -0.578125 9.265625 -1.734375 C 8.273438 -2.890625 7.9375 -4.425781 8.25 -6.34375 L 21.546875 -81.609375 C 21.859375 -82.972656 22.492188 -84.070312 23.453125 -84.90625 C 24.410156 -85.738281 25.566406 -86.15625 26.921875 -86.15625 L 66.890625 -86.15625 C 75.515625 -86.15625 82.238281 -84.019531 87.0625 -79.75 C 91.882812 -75.488281 94.296875 -69.6875 94.296875 -62.34375 C 94.296875 -55.320312 92.5 -49.117188 88.90625 -43.734375 C 85.320312 -38.347656 80.21875 -34.378906 73.59375 -31.828125 L 81.5 -7.0625 C 82.132812 -4.988281 81.992188 -3.289062 81.078125 -1.96875 C 80.160156 -0.65625 78.546875 0 76.234375 0 L 64.625 0 C 63.34375 0 62.222656 -0.359375 61.265625 -1.078125 C 60.304688 -1.796875 59.671875 -2.753906 59.359375 -3.953125 L 51.9375 -28.125 L 34.109375 -28.125 L 30.03125 -4.546875 C 29.71875 -3.191406 29.082031 -2.09375 28.125 -1.25 C 27.164062 -0.414062 26.007812 0 24.65625 0 Z M 37.21875 -45.59375 L 57.203125 -45.59375 C 61.671875 -45.59375 65.257812 -46.867188 67.96875 -49.421875 C 70.6875 -51.972656 72.046875 -55.441406 72.046875 -59.828125 C 72.046875 -62.628906 71.164062 -64.804688 69.40625 -66.359375 C 67.65625 -67.910156 64.941406 -68.6875 61.265625 -68.6875 L 41.28125 -68.6875 Z M 37.21875 -45.59375 "/></g></g></g></g></g></g></g></g></g></mask><clipPath id="c7098f6ade"><path d="M 71.433594 0 L 849.035156 0 L 849.035156 292 L 71.433594 292 Z M 71.433594 0 " clip-rule="nonzero"/></clipPath><clipPath id="756a0b5349"><rect x="0" width="850" y="0" height="292"/></clipPath><clipPath id="21f561ae5b"><rect x="0" width="850" y="0" height="292"/></clipPath><clipPath id="2ec4ea3ba6"><rect x="0" width="850" y="0" height="292"/></clipPath><clipPath id="71a7709e65"><path d="M 267.128906 102.855469 L 985.035156 102.855469 L 985.035156 292 L 267.128906 292 Z M 267.128906 102.855469 " clip-rule="nonzero"/></clipPath><clipPath id="46d842fe49"><path d="M 0.128906 0.855469 L 718.035156 0.855469 L 718.035156 190 L 0.128906 190 Z M 0.128906 0.855469 " clip-rule="nonzero"/></clipPath><clipPath id="2612f2bfbe"><path d="M 51.042969 1.605469 L 718.035156 1.605469 L 718.035156 190 L 51.042969 190 Z M 51.042969 1.605469 " clip-rule="nonzero"/></clipPath><linearGradient x1="-27.905985" gradientTransform="matrix(0.748449, 0, 0, 0.748707, 71.929617, 72.732287)" y1="67" x2="863.25733" gradientUnits="userSpaceOnUse" y2="67" id="9dc974e136"><stop stop-opacity="1" stop-color="rgb(100%, 55.288696%, 9.01947%)" offset="0"/><stop stop-opacity="1" stop-color="rgb(100%, 55.288696%, 9.01947%)" offset="0.0625"/><stop stop-opacity="1" stop-color="rgb(100%, 55.288696%, 9.01947%)" offset="0.09375"/><stop stop-opacity="1" stop-color="rgb(100%, 55.297852%, 9.077454%)" offset="0.109375"/><stop stop-opacity="1" stop-color="rgb(100%, 55.354309%, 9.410095%)" offset="0.113281"/><stop stop-opacity="1" stop-color="rgb(100%, 55.400085%, 9.684753%)" offset="0.117187"/><stop stop-opacity="1" stop-color="rgb(100%, 55.445862%, 9.959412%)" offset="0.121094"/><stop stop-opacity="1" stop-color="rgb(100%, 55.491638%, 10.23407%)" offset="0.125"/><stop stop-opacity="1" stop-color="rgb(100%, 55.537415%, 10.508728%)" offset="0.128906"/><stop stop-opacity="1" stop-color="rgb(100%, 55.583191%, 10.783386%)" offset="0.132812"/><stop stop-opacity="1" stop-color="rgb(100%, 55.628967%, 11.058044%)" offset="0.136719"/><stop stop-opacity="1" stop-color="rgb(100%, 55.674744%, 11.332703%)" offset="0.140625"/><stop stop-opacity="1" stop-color="rgb(100%, 55.72052%, 11.607361%)" offset="0.144531"/><stop stop-opacity="1" stop-color="rgb(100%, 55.766296%, 11.883545%)" offset="0.148438"/><stop stop-opacity="1" stop-color="rgb(100%, 55.812073%, 12.158203%)" offset="0.152344"/><stop stop-opacity="1" stop-color="rgb(100%, 55.859375%, 12.432861%)" offset="0.15625"/><stop stop-opacity="1" stop-color="rgb(100%, 55.905151%, 12.70752%)" offset="0.160156"/><stop stop-opacity="1" stop-color="rgb(100%, 55.950928%, 12.982178%)" offset="0.164062"/><stop stop-opacity="1" stop-color="rgb(100%, 55.996704%, 13.256836%)" offset="0.167969"/><stop stop-opacity="1" stop-color="rgb(100%, 56.04248%, 13.531494%)" offset="0.171875"/><stop stop-opacity="1" stop-color="rgb(100%, 56.088257%, 13.806152%)" offset="0.175781"/><stop stop-opacity="1" stop-color="rgb(100%, 56.134033%, 14.080811%)" offset="0.179687"/><stop stop-opacity="1" stop-color="rgb(100%, 56.17981%, 14.355469%)" offset="0.183594"/><stop stop-opacity="1" stop-color="rgb(100%, 56.225586%, 14.630127%)" offset="0.1875"/><stop stop-opacity="1" stop-color="rgb(100%, 56.271362%, 14.904785%)" offset="0.191406"/><stop stop-opacity="1" stop-color="rgb(100%, 56.317139%, 15.179443%)" offset="0.195312"/><stop stop-opacity="1" stop-color="rgb(100%, 56.362915%, 15.454102%)" offset="0.199219"/><stop stop-opacity="1" stop-color="rgb(100%, 56.408691%, 15.730286%)" offset="0.203125"/><stop stop-opacity="1" stop-color="rgb(100%, 56.454468%, 16.004944%)" offset="0.207031"/><stop stop-opacity="1" stop-color="rgb(100%, 56.500244%, 16.279602%)" offset="0.210937"/><stop stop-opacity="1" stop-color="rgb(100%, 56.546021%, 16.55426%)" offset="0.214844"/><stop stop-opacity="1" stop-color="rgb(100%, 56.591797%, 16.828918%)" offset="0.21875"/><stop stop-opacity="1" stop-color="rgb(100%, 56.637573%, 17.103577%)" offset="0.222656"/><stop stop-opacity="1" stop-color="rgb(100%, 56.68335%, 17.378235%)" offset="0.226562"/><stop stop-opacity="1" stop-color="rgb(100%, 56.729126%, 17.652893%)" offset="0.230469"/><stop stop-opacity="1" stop-color="rgb(100%, 56.774902%, 17.927551%)" offset="0.234375"/><stop stop-opacity="1" stop-color="rgb(100%, 56.820679%, 18.202209%)" offset="0.238281"/><stop stop-opacity="1" stop-color="rgb(100%, 56.867981%, 18.476868%)" offset="0.242187"/><stop stop-opacity="1" stop-color="rgb(100%, 56.913757%, 18.751526%)" offset="0.246094"/><stop stop-opacity="1" stop-color="rgb(100%, 56.959534%, 19.026184%)" offset="0.25"/><stop stop-opacity="1" stop-color="rgb(100%, 57.00531%, 19.300842%)" offset="0.253906"/><stop stop-opacity="1" stop-color="rgb(100%, 57.051086%, 19.5755%)" offset="0.257812"/><stop stop-opacity="1" stop-color="rgb(100%, 57.096863%, 19.850159%)" offset="0.261719"/><stop stop-opacity="1" stop-color="rgb(100%, 57.142639%, 20.126343%)" offset="0.265625"/><stop stop-opacity="1" stop-color="rgb(100%, 57.188416%, 20.401001%)" offset="0.269531"/><stop stop-opacity="1" stop-color="rgb(100%, 57.234192%, 20.675659%)" offset="0.273438"/><stop stop-opacity="1" stop-color="rgb(100%, 57.279968%, 20.950317%)" offset="0.277344"/><stop stop-opacity="1" stop-color="rgb(100%, 57.325745%, 21.224976%)" offset="0.28125"/><stop stop-opacity="1" stop-color="rgb(100%, 57.371521%, 21.499634%)" offset="0.285156"/><stop stop-opacity="1" stop-color="rgb(100%, 57.417297%, 21.774292%)" offset="0.289062"/><stop stop-opacity="1" stop-color="rgb(100%, 57.463074%, 22.04895%)" offset="0.292969"/><stop stop-opacity="1" stop-color="rgb(100%, 57.50885%, 22.323608%)" offset="0.296875"/><stop stop-opacity="1" stop-color="rgb(100%, 57.554626%, 22.598267%)" offset="0.300781"/><stop stop-opacity="1" stop-color="rgb(100%, 57.600403%, 22.872925%)" offset="0.304688"/><stop stop-opacity="1" stop-color="rgb(100%, 57.646179%, 23.147583%)" offset="0.308594"/><stop stop-opacity="1" stop-color="rgb(100%, 57.691956%, 23.422241%)" offset="0.3125"/><stop stop-opacity="1" stop-color="rgb(100%, 57.737732%, 23.696899%)" offset="0.316406"/><stop stop-opacity="1" stop-color="rgb(100%, 57.783508%, 23.973083%)" offset="0.320312"/><stop stop-opacity="1" stop-color="rgb(100%, 57.829285%, 24.247742%)" offset="0.324219"/><stop stop-opacity="1" stop-color="rgb(100%, 57.875061%, 24.5224%)" offset="0.328125"/><stop stop-opacity="1" stop-color="rgb(100%, 57.920837%, 24.797058%)" offset="0.332031"/><stop stop-opacity="1" stop-color="rgb(100%, 57.96814%, 25.071716%)" offset="0.335937"/><stop stop-opacity="1" stop-color="rgb(100%, 58.013916%, 25.346375%)" offset="0.339844"/><stop stop-opacity="1" stop-color="rgb(100%, 58.059692%, 25.621033%)" offset="0.34375"/><stop stop-opacity="1" stop-color="rgb(100%, 58.105469%, 25.895691%)" offset="0.347656"/><stop stop-opacity="1" stop-color="rgb(100%, 58.151245%, 26.170349%)" offset="0.351562"/><stop stop-opacity="1" stop-color="rgb(100%, 58.197021%, 26.445007%)" offset="0.355469"/><stop stop-opacity="1" stop-color="rgb(100%, 58.242798%, 26.719666%)" offset="0.359375"/><stop stop-opacity="1" stop-color="rgb(100%, 58.288574%, 26.994324%)" offset="0.363281"/><stop stop-opacity="1" stop-color="rgb(100%, 58.334351%, 27.268982%)" offset="0.367187"/><stop stop-opacity="1" stop-color="rgb(100%, 58.380127%, 27.54364%)" offset="0.371094"/><stop stop-opacity="1" stop-color="rgb(100%, 58.425903%, 27.818298%)" offset="0.375"/><stop stop-opacity="1" stop-color="rgb(100%, 58.47168%, 28.092957%)" offset="0.378906"/><stop stop-opacity="1" stop-color="rgb(100%, 58.517456%, 28.369141%)" offset="0.382812"/><stop stop-opacity="1" stop-color="rgb(100%, 58.563232%, 28.643799%)" offset="0.386719"/><stop stop-opacity="1" stop-color="rgb(100%, 58.609009%, 28.918457%)" offset="0.390625"/><stop stop-opacity="1" stop-color="rgb(100%, 58.654785%, 29.193115%)" offset="0.394531"/><stop stop-opacity="1" stop-color="rgb(100%, 58.700562%, 29.467773%)" offset="0.398438"/><stop stop-opacity="1" stop-color="rgb(100%, 58.746338%, 29.742432%)" offset="0.402344"/><stop stop-opacity="1" stop-color="rgb(100%, 58.792114%, 30.01709%)" offset="0.40625"/><stop stop-opacity="1" stop-color="rgb(100%, 58.837891%, 30.291748%)" offset="0.410156"/><stop stop-opacity="1" stop-color="rgb(100%, 58.883667%, 30.566406%)" offset="0.414062"/><stop stop-opacity="1" stop-color="rgb(100%, 58.929443%, 30.841064%)" offset="0.417969"/><stop stop-opacity="1" stop-color="rgb(100%, 58.97522%, 31.115723%)" offset="0.421875"/><stop stop-opacity="1" stop-color="rgb(100%, 59.020996%, 31.390381%)" offset="0.425781"/><stop stop-opacity="1" stop-color="rgb(100%, 59.068298%, 31.665039%)" offset="0.429687"/><stop stop-opacity="1" stop-color="rgb(100%, 59.114075%, 31.939697%)" offset="0.433594"/><stop stop-opacity="1" stop-color="rgb(100%, 59.159851%, 32.215881%)" offset="0.4375"/><stop stop-opacity="1" stop-color="rgb(100%, 59.205627%, 32.49054%)" offset="0.441406"/><stop stop-opacity="1" stop-color="rgb(100%, 59.251404%, 32.765198%)" offset="0.445312"/><stop stop-opacity="1" stop-color="rgb(100%, 59.29718%, 33.039856%)" offset="0.449219"/><stop stop-opacity="1" stop-color="rgb(100%, 59.342957%, 33.314514%)" offset="0.453125"/><stop stop-opacity="1" stop-color="rgb(100%, 59.388733%, 33.589172%)" offset="0.457031"/><stop stop-opacity="1" stop-color="rgb(100%, 59.434509%, 33.863831%)" offset="0.460937"/><stop stop-opacity="1" stop-color="rgb(100%, 59.480286%, 34.138489%)" offset="0.464844"/><stop stop-opacity="1" stop-color="rgb(100%, 59.526062%, 34.413147%)" offset="0.46875"/><stop stop-opacity="1" stop-color="rgb(100%, 59.571838%, 34.687805%)" offset="0.472656"/><stop stop-opacity="1" stop-color="rgb(100%, 59.617615%, 34.962463%)" offset="0.476562"/><stop stop-opacity="1" stop-color="rgb(100%, 59.663391%, 35.237122%)" offset="0.480469"/><stop stop-opacity="1" stop-color="rgb(100%, 59.709167%, 35.51178%)" offset="0.484375"/><stop stop-opacity="1" stop-color="rgb(100%, 59.754944%, 35.786438%)" offset="0.488281"/><stop stop-opacity="1" stop-color="rgb(100%, 59.80072%, 36.061096%)" offset="0.492187"/><stop stop-opacity="1" stop-color="rgb(100%, 59.846497%, 36.335754%)" offset="0.496094"/><stop stop-opacity="1" stop-color="rgb(100%, 59.892273%, 36.611938%)" offset="0.5"/><stop stop-opacity="1" stop-color="rgb(100%, 59.938049%, 36.886597%)" offset="0.503906"/><stop stop-opacity="1" stop-color="rgb(100%, 59.983826%, 37.161255%)" offset="0.507812"/><stop stop-opacity="1" stop-color="rgb(99.182129%, 60.173035%, 37.689209%)" offset="0.511719"/><stop stop-opacity="1" stop-color="rgb(98.365784%, 60.36377%, 38.217163%)" offset="0.515625"/><stop stop-opacity="1" stop-color="rgb(97.392273%, 60.580444%, 38.792419%)" offset="0.519531"/><stop stop-opacity="1" stop-color="rgb(96.418762%, 60.798645%, 39.369202%)" offset="0.523437"/><stop stop-opacity="1" stop-color="rgb(95.445251%, 61.016846%, 39.945984%)" offset="0.527344"/><stop stop-opacity="1" stop-color="rgb(94.473267%, 61.235046%, 40.522766%)" offset="0.53125"/><stop stop-opacity="1" stop-color="rgb(93.499756%, 61.451721%, 41.098022%)" offset="0.535156"/><stop stop-opacity="1" stop-color="rgb(92.526245%, 61.669922%, 41.674805%)" offset="0.539062"/><stop stop-opacity="1" stop-color="rgb(91.552734%, 61.886597%, 42.250061%)" offset="0.542969"/><stop stop-opacity="1" stop-color="rgb(90.579224%, 62.104797%, 42.826843%)" offset="0.546875"/><stop stop-opacity="1" stop-color="rgb(89.605713%, 62.321472%, 43.403625%)" offset="0.550781"/><stop stop-opacity="1" stop-color="rgb(88.632202%, 62.539673%, 43.980408%)" offset="0.554687"/><stop stop-opacity="1" stop-color="rgb(87.658691%, 62.756348%, 44.555664%)" offset="0.558594"/><stop stop-opacity="1" stop-color="rgb(86.686707%, 62.974548%, 45.132446%)" offset="0.5625"/><stop stop-opacity="1" stop-color="rgb(85.713196%, 63.191223%, 45.709229%)" offset="0.566406"/><stop stop-opacity="1" stop-color="rgb(84.739685%, 63.409424%, 46.286011%)" offset="0.570312"/><stop stop-opacity="1" stop-color="rgb(83.766174%, 63.626099%, 46.861267%)" offset="0.574219"/><stop stop-opacity="1" stop-color="rgb(82.792664%, 63.844299%, 47.438049%)" offset="0.578125"/><stop stop-opacity="1" stop-color="rgb(81.819153%, 64.060974%, 48.014832%)" offset="0.582031"/><stop stop-opacity="1" stop-color="rgb(80.847168%, 64.279175%, 48.591614%)" offset="0.585937"/><stop stop-opacity="1" stop-color="rgb(79.873657%, 64.497375%, 49.16687%)" offset="0.589844"/><stop stop-opacity="1" stop-color="rgb(78.900146%, 64.715576%, 49.743652%)" offset="0.59375"/><stop stop-opacity="1" stop-color="rgb(77.926636%, 64.932251%, 50.320435%)" offset="0.597656"/><stop stop-opacity="1" stop-color="rgb(76.953125%, 65.150452%, 50.897217%)" offset="0.601562"/><stop stop-opacity="1" stop-color="rgb(75.979614%, 65.367126%, 51.472473%)" offset="0.605469"/><stop stop-opacity="1" stop-color="rgb(75.007629%, 65.585327%, 52.049255%)" offset="0.609375"/><stop stop-opacity="1" stop-color="rgb(74.034119%, 65.802002%, 52.626038%)" offset="0.613281"/><stop stop-opacity="1" stop-color="rgb(73.060608%, 66.020203%, 53.20282%)" offset="0.617187"/><stop stop-opacity="1" stop-color="rgb(72.087097%, 66.236877%, 53.778076%)" offset="0.621094"/><stop stop-opacity="1" stop-color="rgb(71.113586%, 66.455078%, 54.354858%)" offset="0.625"/><stop stop-opacity="1" stop-color="rgb(70.140076%, 66.671753%, 54.931641%)" offset="0.628906"/><stop stop-opacity="1" stop-color="rgb(69.166565%, 66.889954%, 55.508423%)" offset="0.632812"/><stop stop-opacity="1" stop-color="rgb(68.193054%, 67.106628%, 56.083679%)" offset="0.636719"/><stop stop-opacity="1" stop-color="rgb(67.221069%, 67.324829%, 56.660461%)" offset="0.640625"/><stop stop-opacity="1" stop-color="rgb(66.247559%, 67.541504%, 57.237244%)" offset="0.644531"/><stop stop-opacity="1" stop-color="rgb(65.274048%, 67.759705%, 57.814026%)" offset="0.648437"/><stop stop-opacity="1" stop-color="rgb(64.300537%, 67.977905%, 58.389282%)" offset="0.652344"/><stop stop-opacity="1" stop-color="rgb(63.327026%, 68.196106%, 58.966064%)" offset="0.65625"/><stop stop-opacity="1" stop-color="rgb(62.353516%, 68.412781%, 59.542847%)" offset="0.660156"/><stop stop-opacity="1" stop-color="rgb(61.381531%, 68.630981%, 60.119629%)" offset="0.664062"/><stop stop-opacity="1" stop-color="rgb(60.40802%, 68.847656%, 60.694885%)" offset="0.667969"/><stop stop-opacity="1" stop-color="rgb(59.434509%, 69.065857%, 61.271667%)" offset="0.671875"/><stop stop-opacity="1" stop-color="rgb(58.460999%, 69.282532%, 61.84845%)" offset="0.675781"/><stop stop-opacity="1" stop-color="rgb(57.487488%, 69.500732%, 62.425232%)" offset="0.679687"/><stop stop-opacity="1" stop-color="rgb(56.513977%, 69.717407%, 63.000488%)" offset="0.683594"/><stop stop-opacity="1" stop-color="rgb(55.540466%, 69.935608%, 63.577271%)" offset="0.6875"/><stop stop-opacity="1" stop-color="rgb(54.566956%, 70.152283%, 64.154053%)" offset="0.691406"/><stop stop-opacity="1" stop-color="rgb(53.594971%, 70.370483%, 64.730835%)" offset="0.695312"/><stop stop-opacity="1" stop-color="rgb(52.62146%, 70.587158%, 65.306091%)" offset="0.699219"/><stop stop-opacity="1" stop-color="rgb(51.647949%, 70.805359%, 65.882874%)" offset="0.703125"/><stop stop-opacity="1" stop-color="rgb(50.674438%, 71.022034%, 66.45813%)" offset="0.707031"/><stop stop-opacity="1" stop-color="rgb(49.700928%, 71.240234%, 67.034912%)" offset="0.710937"/><stop stop-opacity="1" stop-color="rgb(48.727417%, 71.458435%, 67.611694%)" offset="0.714844"/><stop stop-opacity="1" stop-color="rgb(47.755432%, 71.676636%, 68.188477%)" offset="0.71875"/><stop stop-opacity="1" stop-color="rgb(46.781921%, 71.893311%, 68.763733%)" offset="0.722656"/><stop stop-opacity="1" stop-color="rgb(45.808411%, 72.111511%, 69.340515%)" offset="0.726562"/><stop stop-opacity="1" stop-color="rgb(44.8349%, 72.328186%, 69.917297%)" offset="0.730469"/><stop stop-opacity="1" stop-color="rgb(43.861389%, 72.546387%, 70.49408%)" offset="0.734375"/><stop stop-opacity="1" stop-color="rgb(42.887878%, 72.763062%, 71.069336%)" offset="0.738281"/><stop stop-opacity="1" stop-color="rgb(41.914368%, 72.981262%, 71.646118%)" offset="0.742188"/><stop stop-opacity="1" stop-color="rgb(40.940857%, 73.197937%, 72.2229%)" offset="0.746094"/><stop stop-opacity="1" stop-color="rgb(39.968872%, 73.416138%, 72.799683%)" offset="0.75"/><stop stop-opacity="1" stop-color="rgb(38.995361%, 73.632812%, 73.374939%)" offset="0.753906"/><stop stop-opacity="1" stop-color="rgb(38.021851%, 73.851013%, 73.951721%)" offset="0.757812"/><stop stop-opacity="1" stop-color="rgb(37.04834%, 74.067688%, 74.528503%)" offset="0.761719"/><stop stop-opacity="1" stop-color="rgb(36.074829%, 74.285889%, 75.105286%)" offset="0.765625"/><stop stop-opacity="1" stop-color="rgb(35.101318%, 74.502563%, 75.680542%)" offset="0.769531"/><stop stop-opacity="1" stop-color="rgb(34.129333%, 74.720764%, 76.257324%)" offset="0.773438"/><stop stop-opacity="1" stop-color="rgb(33.155823%, 74.937439%, 76.834106%)" offset="0.777344"/><stop stop-opacity="1" stop-color="rgb(32.182312%, 75.15564%, 77.410889%)" offset="0.78125"/><stop stop-opacity="1" stop-color="rgb(31.208801%, 75.37384%, 77.986145%)" offset="0.785156"/><stop stop-opacity="1" stop-color="rgb(30.235291%, 75.592041%, 78.562927%)" offset="0.789062"/><stop stop-opacity="1" stop-color="rgb(29.26178%, 75.808716%, 79.139709%)" offset="0.792969"/><stop stop-opacity="1" stop-color="rgb(28.288269%, 76.026917%, 79.716492%)" offset="0.796875"/><stop stop-opacity="1" stop-color="rgb(27.314758%, 76.243591%, 80.291748%)" offset="0.800781"/><stop stop-opacity="1" stop-color="rgb(26.342773%, 76.461792%, 80.86853%)" offset="0.804688"/><stop stop-opacity="1" stop-color="rgb(25.369263%, 76.678467%, 81.445312%)" offset="0.808594"/><stop stop-opacity="1" stop-color="rgb(24.395752%, 76.896667%, 82.022095%)" offset="0.8125"/><stop stop-opacity="1" stop-color="rgb(23.422241%, 77.113342%, 82.597351%)" offset="0.816406"/><stop stop-opacity="1" stop-color="rgb(22.44873%, 77.331543%, 83.174133%)" offset="0.820312"/><stop stop-opacity="1" stop-color="rgb(21.47522%, 77.548218%, 83.750916%)" offset="0.824219"/><stop stop-opacity="1" stop-color="rgb(20.503235%, 77.766418%, 84.327698%)" offset="0.828125"/><stop stop-opacity="1" stop-color="rgb(19.529724%, 77.983093%, 84.902954%)" offset="0.832031"/><stop stop-opacity="1" stop-color="rgb(18.556213%, 78.201294%, 85.479736%)" offset="0.835938"/><stop stop-opacity="1" stop-color="rgb(17.582703%, 78.417969%, 86.056519%)" offset="0.839844"/><stop stop-opacity="1" stop-color="rgb(16.609192%, 78.636169%, 86.633301%)" offset="0.84375"/><stop stop-opacity="1" stop-color="rgb(15.635681%, 78.85437%, 87.208557%)" offset="0.847656"/><stop stop-opacity="1" stop-color="rgb(14.66217%, 79.072571%, 87.785339%)" offset="0.851562"/><stop stop-opacity="1" stop-color="rgb(13.68866%, 79.289246%, 88.362122%)" offset="0.855469"/><stop stop-opacity="1" stop-color="rgb(12.716675%, 79.507446%, 88.938904%)" offset="0.859375"/><stop stop-opacity="1" stop-color="rgb(11.743164%, 79.724121%, 89.51416%)" offset="0.863281"/><stop stop-opacity="1" stop-color="rgb(10.769653%, 79.942322%, 90.090942%)" offset="0.867188"/><stop stop-opacity="1" stop-color="rgb(9.796143%, 80.158997%, 90.666199%)" offset="0.871094"/><stop stop-opacity="1" stop-color="rgb(8.822632%, 80.377197%, 91.242981%)" offset="0.875"/><stop stop-opacity="1" stop-color="rgb(7.849121%, 80.593872%, 91.819763%)" offset="0.878906"/><stop stop-opacity="1" stop-color="rgb(6.877136%, 80.812073%, 92.396545%)" offset="0.882812"/><stop stop-opacity="1" stop-color="rgb(5.903625%, 81.028748%, 92.971802%)" offset="0.886719"/><stop stop-opacity="1" stop-color="rgb(4.930115%, 81.246948%, 93.548584%)" offset="0.890625"/><stop stop-opacity="1" stop-color="rgb(3.956604%, 81.463623%, 94.125366%)" offset="0.894531"/><stop stop-opacity="1" stop-color="rgb(2.983093%, 81.681824%, 94.702148%)" offset="0.898438"/><stop stop-opacity="1" stop-color="rgb(2.009583%, 81.898499%, 95.277405%)" offset="0.902344"/><stop stop-opacity="1" stop-color="rgb(1.037598%, 82.116699%, 95.854187%)" offset="0.90625"/><stop stop-opacity="1" stop-color="rgb(0.518799%, 82.232666%, 96.160889%)" offset="0.910156"/><stop stop-opacity="1" stop-color="rgb(0%, 82.348633%, 96.469116%)" offset="0.914063"/><stop stop-opacity="1" stop-color="rgb(0%, 82.348633%, 96.469116%)" offset="0.921875"/><stop stop-opacity="1" stop-color="rgb(0%, 82.348633%, 96.469116%)" offset="0.9375"/><stop stop-opacity="1" stop-color="rgb(0%, 82.348633%, 96.469116%)" offset="1"/></linearGradient><clipPath id="12f98b191e"><rect x="0" width="719" y="0" height="190"/></clipPath><clipPath id="38cd49c7fd"><path d="M 0.128906 0.855469 L 718.035156 0.855469 L 718.035156 190 L 0.128906 190 Z M 0.128906 0.855469 " clip-rule="nonzero"/></clipPath><clipPath id="50594c2315"><rect x="0" width="719" y="0" height="190"/></clipPath><clipPath id="4bcc33ca62"><rect x="0" width="719" y="0" height="190"/></clipPath><mask id="c6c8e73ac3"><g filter="url(#d95c1c5a73)"><g transform="matrix(1, 0, 0, 1, -0.000000000000056843, -0.000000000000028422)"><g clip-path="url(#4bcc33ca62)"><g clip-path="url(#38cd49c7fd)"><g transform="matrix(1, 0, 0, 1, -0.000000000000056843, -0.000000000000028422)"><g clip-path="url(#50594c2315)"><g fill="#000000" fill-opacity="1"><g transform="translate(122.990719, 108.670003)"><g><path d="M 25.402344 -25.511719 L 19.90625 -25.511719 C 19.367188 -25.511719 19.042969 -25.257812 19.042969 -24.828125 L 19.042969 -24.683594 C 19.042969 -23.679688 21.308594 -23.246094 20.660156 -21.59375 L 15.164062 -7.257812 L 9.378906 -21.558594 C 8.730469 -23.210938 10.957031 -23.679688 10.957031 -24.683594 L 10.957031 -24.828125 C 10.957031 -25.257812 10.601562 -25.511719 10.097656 -25.511719 L 0.503906 -25.511719 C 0 -25.511719 -0.359375 -25.257812 -0.359375 -24.828125 L -0.359375 -24.683594 C -0.359375 -23.679688 0.863281 -23.390625 1.726562 -21.558594 L 10.921875 -1.652344 C 11.460938 -0.539062 12.109375 0 13.292969 0 C 14.550781 0 15.304688 -0.539062 15.808594 -1.796875 L 24.144531 -21.59375 C 25.007812 -23.570312 26.230469 -23.679688 26.230469 -24.683594 L 26.230469 -24.828125 C 26.230469 -25.257812 25.90625 -25.511719 25.402344 -25.511719 Z M 25.402344 -25.511719 "/></g></g></g><g fill="#000000" fill-opacity="1"><g transform="translate(151.664358, 108.670003)"><g><path d="M 2.15625 -0.429688 C 2.15625 -0.144531 2.441406 0 2.875 0 L 7.367188 0 C 7.796875 0 8.085938 -0.144531 8.085938 -0.429688 L 8.085938 -0.503906 C 8.085938 -1.148438 6.71875 -1.1875 6.71875 -2.480469 L 6.71875 -22.996094 C 6.71875 -24.289062 8.085938 -24.324219 8.085938 -25.007812 L 8.085938 -25.078125 C 8.085938 -25.367188 7.796875 -25.511719 7.367188 -25.511719 L 2.875 -25.511719 C 2.441406 -25.511719 2.15625 -25.367188 2.15625 -25.078125 L 2.15625 -25.007812 C 2.15625 -24.324219 3.449219 -24.289062 3.449219 -22.996094 L 3.449219 -2.480469 C 3.449219 -1.1875 2.15625 -1.148438 2.15625 -0.503906 Z M 2.15625 -0.429688 "/></g></g></g><g fill="#000000" fill-opacity="1"><g transform="translate(164.455149, 108.670003)"><g><path d="M 11.316406 0.359375 C 16.347656 0.359375 20.515625 -2.300781 20.515625 -6.609375 C 20.515625 -17.460938 5.136719 -11.210938 5.136719 -19.582031 C 5.136719 -22.3125 7.078125 -24.433594 10.707031 -24.433594 C 17.320312 -24.433594 15.953125 -18.539062 18.648438 -18.539062 C 19.617188 -18.539062 20.121094 -19.117188 20.121094 -19.976562 C 20.121094 -22.457031 16.921875 -25.835938 10.816406 -25.835938 C 5.101562 -25.835938 1.867188 -22.816406 1.867188 -18.828125 C 1.867188 -8.046875 17.210938 -14.804688 17.210938 -5.855469 C 17.210938 -3.019531 14.875 -1.042969 11.460938 -1.042969 C 4.238281 -1.042969 5.136719 -7.292969 2.550781 -7.402344 C 1.652344 -7.402344 1.1875 -6.789062 1.1875 -5.964844 C 1.1875 -3.773438 4.277344 0.359375 11.316406 0.359375 Z M 11.316406 0.359375 "/></g></g></g><g fill="#000000" fill-opacity="1"><g transform="translate(188.814383, 108.670003)"><g><path d="M 13.1875 0.359375 C 18.828125 0.359375 22.78125 -3.664062 22.78125 -9.882812 L 22.78125 -22.996094 C 22.78125 -24.253906 24.253906 -24.324219 24.253906 -24.972656 L 24.253906 -25.078125 C 24.253906 -25.367188 23.929688 -25.511719 23.5 -25.511719 L 20.335938 -25.511719 C 19.90625 -25.511719 19.582031 -25.367188 19.582031 -25.078125 L 19.582031 -24.972656 C 19.582031 -24.324219 20.949219 -24.253906 20.949219 -22.996094 L 20.949219 -9.917969 C 20.949219 -4.203125 17.570312 -1.1875 13.796875 -1.1875 C 9.304688 -1.1875 6.324219 -4.597656 6.324219 -9.917969 L 6.324219 -22.996094 C 6.324219 -24.253906 7.6875 -24.324219 7.6875 -24.972656 L 7.6875 -25.078125 C 7.6875 -25.367188 7.402344 -25.511719 6.96875 -25.511719 L 2.441406 -25.511719 C 2.011719 -25.511719 1.726562 -25.367188 1.726562 -25.078125 L 1.726562 -24.972656 C 1.726562 -24.324219 3.019531 -24.253906 3.019531 -22.996094 L 3.019531 -9.917969 C 3.019531 -3.664062 7.1875 0.359375 13.1875 0.359375 Z M 13.1875 0.359375 "/></g></g></g><g fill="#000000" fill-opacity="1"><g transform="translate(217.235859, 108.670003)"><g><path d="M 23.570312 -3.917969 L 15.378906 -23.785156 C 14.875 -24.972656 14.15625 -25.511719 12.898438 -25.511719 L 8.300781 -25.511719 C 7.796875 -25.511719 7.472656 -25.257812 7.472656 -24.828125 L 7.472656 -24.683594 C 7.472656 -23.824219 9.34375 -22.707031 8.804688 -21.308594 L 2.085938 -3.917969 C 1.328125 -2.011719 0 -1.832031 0 -0.828125 L 0 -0.683594 C 0 -0.25 0.324219 0 0.863281 0 L 6.179688 0 C 6.71875 0 7.042969 -0.25 7.042969 -0.683594 L 7.042969 -0.828125 C 7.042969 -1.832031 4.921875 -2.261719 5.496094 -3.917969 L 6.289062 -6.144531 L 15.414062 -6.144531 L 16.203125 -3.917969 C 16.78125 -2.261719 14.660156 -1.832031 14.660156 -0.828125 L 14.660156 -0.683594 C 14.660156 -0.25 14.984375 0 15.484375 0 L 24.792969 0 C 25.332031 0 25.65625 -0.25 25.65625 -0.683594 L 25.65625 -0.828125 C 25.65625 -1.832031 24.324219 -2.046875 23.570312 -3.917969 Z M 7.257812 -8.839844 L 10.851562 -18.863281 L 14.445312 -8.839844 Z M 7.257812 -8.839844 "/></g></g></g><g fill="#000000" fill-opacity="1"><g transform="translate(245.195875, 108.670003)"><g><path d="M 2.875 0 L 18.503906 0 C 19.042969 0 19.296875 -0.289062 19.402344 -0.828125 L 20.300781 -4.777344 C 20.410156 -5.210938 20.230469 -5.425781 19.90625 -5.425781 L 19.617188 -5.425781 C 18.359375 -5.425781 17.929688 -1.472656 15.84375 -1.472656 L 7.867188 -1.472656 C 7.113281 -1.472656 6.71875 -2.046875 6.71875 -2.875 L 6.71875 -22.996094 C 6.71875 -24.324219 8.121094 -24.289062 8.121094 -25.007812 L 8.121094 -25.078125 C 8.121094 -25.367188 7.832031 -25.511719 7.402344 -25.511719 L 2.875 -25.511719 C 2.441406 -25.511719 2.15625 -25.367188 2.15625 -25.078125 L 2.15625 -25.007812 C 2.15625 -24.289062 3.449219 -24.324219 3.449219 -22.996094 L 3.449219 -2.515625 C 3.449219 -1.257812 2.15625 -1.1875 2.15625 -0.503906 L 2.15625 -0.429688 C 2.15625 -0.179688 2.441406 0 2.875 0 Z M 2.875 0 "/></g></g></g><g fill="#000000" fill-opacity="1"><g transform="translate(267.435304, 108.670003)"><g/></g></g><g fill="#000000" fill-opacity="1"><g transform="translate(278.116161, 108.670003)"><g><path d="M 1.472656 -0.683594 C 1.472656 -0.25 1.832031 0 2.335938 0 L 10.132812 0 C 10.671875 0 10.996094 -0.25 10.996094 -0.683594 L 10.996094 -0.828125 C 10.996094 -1.832031 9.414062 -2.261719 9.414062 -3.917969 L 9.414062 -21.59375 C 9.414062 -23.246094 10.996094 -23.679688 10.996094 -24.683594 L 10.996094 -24.828125 C 10.996094 -25.257812 10.671875 -25.511719 10.132812 -25.511719 L 2.335938 -25.511719 C 1.832031 -25.511719 1.472656 -25.257812 1.472656 -24.828125 L 1.472656 -24.683594 C 1.472656 -23.679688 2.910156 -23.246094 2.910156 -21.59375 L 2.910156 -3.917969 C 2.910156 -2.261719 1.472656 -1.832031 1.472656 -0.828125 Z M 1.472656 -0.683594 "/></g></g></g><g fill="#000000" fill-opacity="1"><g transform="translate(293.172458, 108.670003)"><g><path d="M 24.289062 -25.511719 L 21.019531 -25.511719 C 20.550781 -25.511719 20.265625 -25.332031 20.265625 -25.042969 L 20.265625 -24.972656 C 20.265625 -24.324219 21.738281 -24.289062 21.738281 -22.996094 L 21.738281 -4.167969 L 6.828125 -24.792969 C 6.503906 -25.257812 6.109375 -25.511719 5.535156 -25.511719 L 2.800781 -25.511719 C 2.335938 -25.511719 2.085938 -25.332031 2.085938 -25.042969 L 2.085938 -24.898438 C 2.085938 -24.21875 3.449219 -24.21875 3.449219 -22.960938 L 3.449219 -2.621094 C 3.449219 -1.292969 2.085938 -1.1875 2.085938 -0.503906 L 2.085938 -0.429688 C 2.085938 -0.144531 2.335938 0 2.800781 0 L 6.074219 0 C 6.503906 0 6.828125 -0.144531 6.828125 -0.429688 L 6.828125 -0.503906 C 6.828125 -1.1875 5.28125 -1.292969 5.28125 -2.621094 L 5.28125 -21.847656 L 20.625 -0.933594 C 21.089844 -0.214844 21.414062 0 21.773438 0 L 22.671875 0 C 23.246094 0 23.570312 -0.359375 23.570312 -0.96875 L 23.570312 -22.996094 C 23.570312 -24.289062 25.007812 -24.324219 25.007812 -24.972656 L 25.007812 -25.042969 C 25.007812 -25.332031 24.71875 -25.511719 24.289062 -25.511719 Z M 24.289062 -25.511719 "/></g></g></g><g fill="#000000" fill-opacity="1"><g transform="translate(322.705155, 108.670003)"><g><path d="M 8.550781 0 L 13.042969 0 C 13.511719 0 13.796875 -0.144531 13.796875 -0.429688 L 13.796875 -0.503906 C 13.796875 -1.1875 12.394531 -1.222656 12.394531 -2.515625 L 12.394531 -23.964844 L 17.355469 -23.964844 C 19.152344 -23.964844 19.617188 -20.085938 20.660156 -20.085938 L 21.019531 -20.085938 C 21.34375 -20.085938 21.558594 -20.300781 21.449219 -20.769531 L 20.660156 -24.71875 C 20.550781 -25.222656 20.300781 -25.511719 19.726562 -25.511719 L 1.867188 -25.511719 C 1.292969 -25.511719 1.042969 -25.222656 0.96875 -24.71875 L 0.394531 -20.804688 C 0.324219 -20.300781 0.503906 -20.085938 0.863281 -20.085938 L 1.1875 -20.085938 C 2.226562 -20.085938 2.441406 -23.964844 4.277344 -23.964844 L 9.164062 -23.964844 L 9.164062 -2.515625 C 9.164062 -1.222656 7.832031 -1.1875 7.832031 -0.503906 L 7.832031 -0.429688 C 7.832031 -0.144531 8.121094 0 8.550781 0 Z M 8.550781 0 "/></g></g></g><g fill="#000000" fill-opacity="1"><g transform="translate(347.13625, 108.670003)"><g><path d="M 2.875 0 L 19.042969 0 C 19.617188 0 19.871094 -0.289062 19.976562 -0.828125 L 20.839844 -4.457031 C 20.910156 -4.851562 20.730469 -5.175781 20.410156 -5.175781 L 20.191406 -5.175781 C 18.9375 -5.175781 18.324219 -1.472656 16.421875 -1.472656 L 7.976562 -1.472656 C 7.078125 -1.472656 6.648438 -2.191406 6.648438 -3.019531 L 6.683594 -12.324219 L 13.222656 -12.324219 C 14.589844 -12.324219 14.550781 -10.277344 15.304688 -10.277344 L 15.449219 -10.277344 C 15.738281 -10.277344 15.917969 -10.527344 15.917969 -10.886719 L 15.917969 -15.304688 C 15.917969 -15.703125 15.738281 -15.917969 15.449219 -15.917969 L 15.304688 -15.917969 C 14.550781 -15.917969 14.589844 -13.796875 13.222656 -13.796875 L 6.683594 -13.796875 L 6.683594 -22.816406 C 6.683594 -23.679688 7.042969 -24.039062 7.6875 -24.039062 L 15.304688 -24.039062 C 17.175781 -24.039062 18.039062 -20.445312 19.152344 -20.445312 L 19.332031 -20.445312 C 19.691406 -20.445312 19.871094 -20.660156 19.761719 -21.164062 L 18.898438 -24.71875 C 18.792969 -25.222656 18.578125 -25.511719 18 -25.511719 L 2.765625 -25.511719 C 2.371094 -25.511719 2.121094 -25.367188 2.121094 -25.117188 L 2.121094 -25.007812 C 2.121094 -24.359375 3.449219 -24.324219 3.449219 -22.960938 L 3.449219 -2.550781 C 3.449219 -1.1875 2.121094 -1.1875 2.121094 -0.503906 L 2.121094 -0.429688 C 2.121094 -0.144531 2.441406 0 2.875 0 Z M 2.875 0 "/></g></g></g><g fill="#000000" fill-opacity="1"><g transform="translate(371.279924, 108.670003)"><g><path d="M 2.875 0 L 18.503906 0 C 19.042969 0 19.296875 -0.289062 19.402344 -0.828125 L 20.300781 -4.777344 C 20.410156 -5.210938 20.230469 -5.425781 19.90625 -5.425781 L 19.617188 -5.425781 C 18.359375 -5.425781 17.929688 -1.472656 15.84375 -1.472656 L 7.867188 -1.472656 C 7.113281 -1.472656 6.71875 -2.046875 6.71875 -2.875 L 6.71875 -22.996094 C 6.71875 -24.324219 8.121094 -24.289062 8.121094 -25.007812 L 8.121094 -25.078125 C 8.121094 -25.367188 7.832031 -25.511719 7.402344 -25.511719 L 2.875 -25.511719 C 2.441406 -25.511719 2.15625 -25.367188 2.15625 -25.078125 L 2.15625 -25.007812 C 2.15625 -24.289062 3.449219 -24.324219 3.449219 -22.996094 L 3.449219 -2.515625 C 3.449219 -1.257812 2.15625 -1.1875 2.15625 -0.503906 L 2.15625 -0.429688 C 2.15625 -0.179688 2.441406 0 2.875 0 Z M 2.875 0 "/></g></g></g><g fill="#000000" fill-opacity="1"><g transform="translate(394.525423, 108.670003)"><g><path d="M 2.875 0 L 18.503906 0 C 19.042969 0 19.296875 -0.289062 19.402344 -0.828125 L 20.300781 -4.777344 C 20.410156 -5.210938 20.230469 -5.425781 19.90625 -5.425781 L 19.617188 -5.425781 C 18.359375 -5.425781 17.929688 -1.472656 15.84375 -1.472656 L 7.867188 -1.472656 C 7.113281 -1.472656 6.71875 -2.046875 6.71875 -2.875 L 6.71875 -22.996094 C 6.71875 -24.324219 8.121094 -24.289062 8.121094 -25.007812 L 8.121094 -25.078125 C 8.121094 -25.367188 7.832031 -25.511719 7.402344 -25.511719 L 2.875 -25.511719 C 2.441406 -25.511719 2.15625 -25.367188 2.15625 -25.078125 L 2.15625 -25.007812 C 2.15625 -24.289062 3.449219 -24.324219 3.449219 -22.996094 L 3.449219 -2.515625 C 3.449219 -1.257812 2.15625 -1.1875 2.15625 -0.503906 L 2.15625 -0.429688 C 2.15625 -0.179688 2.441406 0 2.875 0 Z M 2.875 0 "/></g></g></g><g fill="#000000" fill-opacity="1"><g transform="translate(417.770922, 108.670003)"><g><path d="M 2.15625 -0.429688 C 2.15625 -0.144531 2.441406 0 2.875 0 L 7.367188 0 C 7.796875 0 8.085938 -0.144531 8.085938 -0.429688 L 8.085938 -0.503906 C 8.085938 -1.148438 6.71875 -1.1875 6.71875 -2.480469 L 6.71875 -22.996094 C 6.71875 -24.289062 8.085938 -24.324219 8.085938 -25.007812 L 8.085938 -25.078125 C 8.085938 -25.367188 7.796875 -25.511719 7.367188 -25.511719 L 2.875 -25.511719 C 2.441406 -25.511719 2.15625 -25.367188 2.15625 -25.078125 L 2.15625 -25.007812 C 2.15625 -24.324219 3.449219 -24.289062 3.449219 -22.996094 L 3.449219 -2.480469 C 3.449219 -1.1875 2.15625 -1.148438 2.15625 -0.503906 Z M 2.15625 -0.429688 "/></g></g></g><g fill="#000000" fill-opacity="1"><g transform="translate(430.453922, 108.670003)"><g><path d="M 13.761719 0.359375 C 17.5 0.359375 20.480469 -0.753906 22.347656 -2.300781 C 23.066406 -2.875 23.285156 -3.269531 23.285156 -4.023438 L 23.285156 -9.59375 C 23.285156 -11.03125 25.402344 -10.957031 25.402344 -11.570312 L 25.402344 -11.714844 C 25.402344 -12 25.117188 -12.179688 24.683594 -12.179688 L 18.539062 -12.214844 C 18.109375 -12.214844 17.785156 -12.035156 17.785156 -11.714844 L 17.785156 -11.570312 C 17.785156 -10.957031 20.230469 -11.03125 20.230469 -9.59375 L 20.230469 -3.378906 C 18.972656 -2.480469 16.921875 -1.832031 14.625 -1.832031 C 9.378906 -1.832031 4.527344 -7.292969 4.527344 -14.589844 C 4.527344 -20.15625 8.085938 -24.359375 12.433594 -24.359375 C 18.972656 -24.359375 19.042969 -17.679688 21.738281 -17.679688 C 22.671875 -17.679688 23.285156 -18.289062 23.285156 -19.222656 C 23.285156 -21.847656 19.4375 -25.835938 13.367188 -25.835938 C 6.648438 -25.835938 1.328125 -20.589844 1.328125 -12.648438 C 1.328125 -5.605469 7.148438 0.359375 13.761719 0.359375 Z M 13.761719 0.359375 "/></g></g></g><g fill="#000000" fill-opacity="1"><g transform="translate(459.052525, 108.670003)"><g><path d="M 2.875 0 L 19.042969 0 C 19.617188 0 19.871094 -0.289062 19.976562 -0.828125 L 20.839844 -4.457031 C 20.910156 -4.851562 20.730469 -5.175781 20.410156 -5.175781 L 20.191406 -5.175781 C 18.9375 -5.175781 18.324219 -1.472656 16.421875 -1.472656 L 7.976562 -1.472656 C 7.078125 -1.472656 6.648438 -2.191406 6.648438 -3.019531 L 6.683594 -12.324219 L 13.222656 -12.324219 C 14.589844 -12.324219 14.550781 -10.277344 15.304688 -10.277344 L 15.449219 -10.277344 C 15.738281 -10.277344 15.917969 -10.527344 15.917969 -10.886719 L 15.917969 -15.304688 C 15.917969 -15.703125 15.738281 -15.917969 15.449219 -15.917969 L 15.304688 -15.917969 C 14.550781 -15.917969 14.589844 -13.796875 13.222656 -13.796875 L 6.683594 -13.796875 L 6.683594 -22.816406 C 6.683594 -23.679688 7.042969 -24.039062 7.6875 -24.039062 L 15.304688 -24.039062 C 17.175781 -24.039062 18.039062 -20.445312 19.152344 -20.445312 L 19.332031 -20.445312 C 19.691406 -20.445312 19.871094 -20.660156 19.761719 -21.164062 L 18.898438 -24.71875 C 18.792969 -25.222656 18.578125 -25.511719 18 -25.511719 L 2.765625 -25.511719 C 2.371094 -25.511719 2.121094 -25.367188 2.121094 -25.117188 L 2.121094 -25.007812 C 2.121094 -24.359375 3.449219 -24.324219 3.449219 -22.960938 L 3.449219 -2.550781 C 3.449219 -1.1875 2.121094 -1.1875 2.121094 -0.503906 L 2.121094 -0.429688 C 2.121094 -0.144531 2.441406 0 2.875 0 Z M 2.875 0 "/></g></g></g><g fill="#000000" fill-opacity="1"><g transform="translate(483.1962, 108.670003)"><g><path d="M 24.289062 -25.511719 L 21.019531 -25.511719 C 20.550781 -25.511719 20.265625 -25.332031 20.265625 -25.042969 L 20.265625 -24.972656 C 20.265625 -24.324219 21.738281 -24.289062 21.738281 -22.996094 L 21.738281 -4.167969 L 6.828125 -24.792969 C 6.503906 -25.257812 6.109375 -25.511719 5.535156 -25.511719 L 2.800781 -25.511719 C 2.335938 -25.511719 2.085938 -25.332031 2.085938 -25.042969 L 2.085938 -24.898438 C 2.085938 -24.21875 3.449219 -24.21875 3.449219 -22.960938 L 3.449219 -2.621094 C 3.449219 -1.292969 2.085938 -1.1875 2.085938 -0.503906 L 2.085938 -0.429688 C 2.085938 -0.144531 2.335938 0 2.800781 0 L 6.074219 0 C 6.503906 0 6.828125 -0.144531 6.828125 -0.429688 L 6.828125 -0.503906 C 6.828125 -1.1875 5.28125 -1.292969 5.28125 -2.621094 L 5.28125 -21.847656 L 20.625 -0.933594 C 21.089844 -0.214844 21.414062 0 21.773438 0 L 22.671875 0 C 23.246094 0 23.570312 -0.359375 23.570312 -0.96875 L 23.570312 -22.996094 C 23.570312 -24.289062 25.007812 -24.324219 25.007812 -24.972656 L 25.007812 -25.042969 C 25.007812 -25.332031 24.71875 -25.511719 24.289062 -25.511719 Z M 24.289062 -25.511719 "/></g></g></g><g fill="#000000" fill-opacity="1"><g transform="translate(512.657026, 108.670003)"><g><path d="M 13.292969 0.359375 C 19.257812 0.359375 22.636719 -3.773438 23.425781 -8.011719 C 23.644531 -9.054688 22.527344 -9.199219 22.097656 -8.480469 C 20.984375 -5.820312 18.503906 -2.515625 14.191406 -2.515625 C 9.125 -2.515625 4.417969 -7.546875 4.417969 -14.804688 C 4.417969 -20.480469 8.121094 -24.359375 12.289062 -24.359375 C 18.863281 -24.359375 18.648438 -17.640625 21.34375 -17.640625 C 22.347656 -17.640625 22.925781 -18.253906 22.925781 -19.1875 C 22.925781 -21.773438 18.792969 -25.835938 13.113281 -25.835938 C 6.214844 -25.835938 1.1875 -20.550781 1.1875 -13.007812 C 1.1875 -5.894531 6.96875 0.359375 13.292969 0.359375 Z M 13.292969 0.359375 "/></g></g></g><g fill="#000000" fill-opacity="1"><g transform="translate(539.602997, 108.670003)"><g><path d="M 2.875 0 L 19.042969 0 C 19.617188 0 19.871094 -0.289062 19.976562 -0.828125 L 20.839844 -4.457031 C 20.910156 -4.851562 20.730469 -5.175781 20.410156 -5.175781 L 20.191406 -5.175781 C 18.9375 -5.175781 18.324219 -1.472656 16.421875 -1.472656 L 7.976562 -1.472656 C 7.078125 -1.472656 6.648438 -2.191406 6.648438 -3.019531 L 6.683594 -12.324219 L 13.222656 -12.324219 C 14.589844 -12.324219 14.550781 -10.277344 15.304688 -10.277344 L 15.449219 -10.277344 C 15.738281 -10.277344 15.917969 -10.527344 15.917969 -10.886719 L 15.917969 -15.304688 C 15.917969 -15.703125 15.738281 -15.917969 15.449219 -15.917969 L 15.304688 -15.917969 C 14.550781 -15.917969 14.589844 -13.796875 13.222656 -13.796875 L 6.683594 -13.796875 L 6.683594 -22.816406 C 6.683594 -23.679688 7.042969 -24.039062 7.6875 -24.039062 L 15.304688 -24.039062 C 17.175781 -24.039062 18.039062 -20.445312 19.152344 -20.445312 L 19.332031 -20.445312 C 19.691406 -20.445312 19.871094 -20.660156 19.761719 -21.164062 L 18.898438 -24.71875 C 18.792969 -25.222656 18.578125 -25.511719 18 -25.511719 L 2.765625 -25.511719 C 2.371094 -25.511719 2.121094 -25.367188 2.121094 -25.117188 L 2.121094 -25.007812 C 2.121094 -24.359375 3.449219 -24.324219 3.449219 -22.960938 L 3.449219 -2.550781 C 3.449219 -1.1875 2.121094 -1.1875 2.121094 -0.503906 L 2.121094 -0.429688 C 2.121094 -0.144531 2.441406 0 2.875 0 Z M 2.875 0 "/></g></g></g><g fill="#000000" fill-opacity="1"><g transform="translate(563.746684, 108.670003)"><g/></g></g><g fill="#000000" fill-opacity="1"><g transform="translate(573.196145, 108.670003)"><g><path d="M 22.3125 -2.515625 L 13.042969 -24.324219 C 12.683594 -25.1875 12.214844 -25.511719 11.355469 -25.511719 L 9.269531 -25.511719 C 8.910156 -25.511719 8.765625 -25.332031 8.765625 -25.117188 L 8.765625 -25.007812 C 8.765625 -24.433594 10.3125 -23.964844 9.882812 -22.886719 L 1.90625 -2.515625 C 1.402344 -1.148438 0.214844 -1.1875 0.214844 -0.503906 L 0.214844 -0.429688 C 0.214844 -0.144531 0.46875 0 0.933594 0 L 4.347656 0 C 4.816406 0 5.101562 -0.144531 5.101562 -0.429688 L 5.101562 -0.503906 C 5.101562 -1.1875 3.378906 -1.257812 3.878906 -2.515625 L 5.460938 -6.753906 L 17.101562 -6.753906 L 18.828125 -2.515625 C 19.296875 -1.257812 17.605469 -1.1875 17.605469 -0.503906 L 17.605469 -0.429688 C 17.605469 -0.144531 17.859375 0 18.289062 0 L 23.355469 0 C 23.785156 0 24.039062 -0.144531 24.039062 -0.429688 L 24.039062 -0.503906 C 24.039062 -1.1875 22.886719 -1.1875 22.3125 -2.515625 Z M 6.074219 -8.300781 L 11.101562 -21.628906 L 16.492188 -8.300781 Z M 6.074219 -8.300781 "/></g></g></g><g fill="#000000" fill-opacity="1"><g transform="translate(599.818755, 108.670003)"><g><path d="M 24.289062 -25.511719 L 21.019531 -25.511719 C 20.550781 -25.511719 20.265625 -25.332031 20.265625 -25.042969 L 20.265625 -24.972656 C 20.265625 -24.324219 21.738281 -24.289062 21.738281 -22.996094 L 21.738281 -4.167969 L 6.828125 -24.792969 C 6.503906 -25.257812 6.109375 -25.511719 5.535156 -25.511719 L 2.800781 -25.511719 C 2.335938 -25.511719 2.085938 -25.332031 2.085938 -25.042969 L 2.085938 -24.898438 C 2.085938 -24.21875 3.449219 -24.21875 3.449219 -22.960938 L 3.449219 -2.621094 C 3.449219 -1.292969 2.085938 -1.1875 2.085938 -0.503906 L 2.085938 -0.429688 C 2.085938 -0.144531 2.335938 0 2.800781 0 L 6.074219 0 C 6.503906 0 6.828125 -0.144531 6.828125 -0.429688 L 6.828125 -0.503906 C 6.828125 -1.1875 5.28125 -1.292969 5.28125 -2.621094 L 5.28125 -21.847656 L 20.625 -0.933594 C 21.089844 -0.214844 21.414062 0 21.773438 0 L 22.671875 0 C 23.246094 0 23.570312 -0.359375 23.570312 -0.96875 L 23.570312 -22.996094 C 23.570312 -24.289062 25.007812 -24.324219 25.007812 -24.972656 L 25.007812 -25.042969 C 25.007812 -25.332031 24.71875 -25.511719 24.289062 -25.511719 Z M 24.289062 -25.511719 "/></g></g></g><g fill="#000000" fill-opacity="1"><g transform="translate(629.351453, 108.670003)"><g><path d="M 2.875 0 L 12.035156 0 C 19.4375 0 25.257812 -4.851562 25.257812 -12.972656 C 25.257812 -20.480469 18.683594 -25.511719 10.742188 -25.511719 L 2.875 -25.511719 C 2.441406 -25.511719 2.121094 -25.367188 2.121094 -25.078125 L 2.121094 -25.007812 C 2.121094 -24.324219 3.449219 -24.289062 3.449219 -22.996094 L 3.449219 -2.515625 C 3.449219 -1.257812 2.121094 -1.1875 2.121094 -0.503906 L 2.121094 -0.429688 C 2.121094 -0.144531 2.441406 0 2.875 0 Z M 8.335938 -1.472656 C 7.292969 -1.472656 6.648438 -2.191406 6.648438 -3.449219 L 6.648438 -22.886719 C 6.648438 -23.679688 7.078125 -24.039062 7.652344 -24.039062 L 10.167969 -24.039062 C 16.242188 -24.039062 21.917969 -19.296875 21.917969 -11.820312 C 21.917969 -5.210938 17.320312 -1.472656 11.820312 -1.472656 Z M 8.335938 -1.472656 "/></g></g></g><g fill="#000000" fill-opacity="1"><g transform="translate(170.920503, 158.834249)"><g><path d="M 11.855469 0.359375 C 17.175781 0.359375 21.738281 -2.335938 21.738281 -7.078125 C 21.738281 -17.140625 7.6875 -12.648438 7.6875 -20.335938 C 7.6875 -22.097656 8.765625 -23.5 11.03125 -23.5 C 15.484375 -23.5 14.371094 -16.78125 18.71875 -16.78125 C 20.550781 -16.78125 21.449219 -17.820312 21.449219 -19.402344 C 21.488281 -22.671875 17.101562 -25.835938 11.136719 -25.835938 C 5.210938 -25.835938 1.402344 -22.636719 1.402344 -18.074219 C 1.4375 -7.546875 15.523438 -12 15.523438 -4.996094 C 15.523438 -3.125 14.191406 -2.011719 12.109375 -2.011719 C 6.71875 -2.011719 7.4375 -8.695312 3.558594 -8.730469 C 1.761719 -8.730469 0.96875 -7.6875 0.96875 -6.179688 C 0.96875 -2.980469 5.28125 0.359375 11.855469 0.359375 Z M 11.855469 0.359375 "/></g></g></g><g fill="#000000" fill-opacity="1"><g transform="translate(196.295094, 158.834249)"><g><path d="M 2.875 0 L 7.367188 0 C 7.796875 0 8.085938 -0.179688 8.085938 -0.46875 L 8.085938 -0.539062 C 8.085938 -1.148438 6.683594 -1.222656 6.683594 -2.515625 L 6.683594 -8.660156 L 10.382812 -8.660156 C 16.960938 -8.660156 20.875 -11.714844 20.875 -17.210938 C 20.875 -23.175781 15.558594 -25.511719 9.558594 -25.511719 L 2.875 -25.511719 C 2.40625 -25.511719 2.121094 -25.367188 2.121094 -25.078125 L 2.121094 -24.972656 C 2.121094 -24.324219 3.449219 -24.179688 3.449219 -22.996094 L 3.449219 -2.515625 C 3.449219 -1.222656 2.121094 -1.148438 2.121094 -0.539062 L 2.121094 -0.46875 C 2.121094 -0.179688 2.40625 0 2.875 0 Z M 7.976562 -10.132812 C 7.113281 -10.132812 6.683594 -10.601562 6.683594 -11.425781 L 6.683594 -22.886719 C 6.683594 -23.644531 6.96875 -24.039062 7.617188 -24.039062 L 9.558594 -24.039062 C 13.691406 -24.039062 17.535156 -21.667969 17.535156 -16.421875 C 17.535156 -12.46875 14.769531 -10.132812 10.382812 -10.132812 Z M 7.976562 -10.132812 "/></g></g></g><g fill="#000000" fill-opacity="1"><g transform="translate(218.82184, 158.834249)"><g><path d="M 22.3125 -2.515625 L 13.042969 -24.324219 C 12.683594 -25.1875 12.214844 -25.511719 11.355469 -25.511719 L 9.269531 -25.511719 C 8.910156 -25.511719 8.765625 -25.332031 8.765625 -25.117188 L 8.765625 -25.007812 C 8.765625 -24.433594 10.3125 -23.964844 9.882812 -22.886719 L 1.90625 -2.515625 C 1.402344 -1.148438 0.214844 -1.1875 0.214844 -0.503906 L 0.214844 -0.429688 C 0.214844 -0.144531 0.46875 0 0.933594 0 L 4.347656 0 C 4.816406 0 5.101562 -0.144531 5.101562 -0.429688 L 5.101562 -0.503906 C 5.101562 -1.1875 3.378906 -1.257812 3.878906 -2.515625 L 5.460938 -6.753906 L 17.101562 -6.753906 L 18.828125 -2.515625 C 19.296875 -1.257812 17.605469 -1.1875 17.605469 -0.503906 L 17.605469 -0.429688 C 17.605469 -0.144531 17.859375 0 18.289062 0 L 23.355469 0 C 23.785156 0 24.039062 -0.144531 24.039062 -0.429688 L 24.039062 -0.503906 C 24.039062 -1.1875 22.886719 -1.1875 22.3125 -2.515625 Z M 6.074219 -8.300781 L 11.101562 -21.628906 L 16.492188 -8.300781 Z M 6.074219 -8.300781 "/></g></g></g><g fill="#000000" fill-opacity="1"><g transform="translate(242.390323, 158.834249)"><g><path d="M 8.550781 0 L 13.042969 0 C 13.511719 0 13.796875 -0.144531 13.796875 -0.429688 L 13.796875 -0.503906 C 13.796875 -1.1875 12.394531 -1.222656 12.394531 -2.515625 L 12.394531 -23.964844 L 17.355469 -23.964844 C 19.152344 -23.964844 19.617188 -20.085938 20.660156 -20.085938 L 21.019531 -20.085938 C 21.34375 -20.085938 21.558594 -20.300781 21.449219 -20.769531 L 20.660156 -24.71875 C 20.550781 -25.222656 20.300781 -25.511719 19.726562 -25.511719 L 1.867188 -25.511719 C 1.292969 -25.511719 1.042969 -25.222656 0.96875 -24.71875 L 0.394531 -20.804688 C 0.324219 -20.300781 0.503906 -20.085938 0.863281 -20.085938 L 1.1875 -20.085938 C 2.226562 -20.085938 2.441406 -23.964844 4.277344 -23.964844 L 9.164062 -23.964844 L 9.164062 -2.515625 C 9.164062 -1.222656 7.832031 -1.1875 7.832031 -0.503906 L 7.832031 -0.429688 C 7.832031 -0.144531 8.121094 0 8.550781 0 Z M 8.550781 0 "/></g></g></g><g fill="#000000" fill-opacity="1"><g transform="translate(266.821417, 158.834249)"><g><path d="M 2.15625 -0.429688 C 2.15625 -0.144531 2.441406 0 2.875 0 L 7.367188 0 C 7.796875 0 8.085938 -0.144531 8.085938 -0.429688 L 8.085938 -0.503906 C 8.085938 -1.148438 6.71875 -1.1875 6.71875 -2.480469 L 6.71875 -22.996094 C 6.71875 -24.289062 8.085938 -24.324219 8.085938 -25.007812 L 8.085938 -25.078125 C 8.085938 -25.367188 7.796875 -25.511719 7.367188 -25.511719 L 2.875 -25.511719 C 2.441406 -25.511719 2.15625 -25.367188 2.15625 -25.078125 L 2.15625 -25.007812 C 2.15625 -24.324219 3.449219 -24.289062 3.449219 -22.996094 L 3.449219 -2.480469 C 3.449219 -1.1875 2.15625 -1.148438 2.15625 -0.503906 Z M 2.15625 -0.429688 "/></g></g></g><g fill="#000000" fill-opacity="1"><g transform="translate(279.612208, 158.834249)"><g><path d="M 22.3125 -2.515625 L 13.042969 -24.324219 C 12.683594 -25.1875 12.214844 -25.511719 11.355469 -25.511719 L 9.269531 -25.511719 C 8.910156 -25.511719 8.765625 -25.332031 8.765625 -25.117188 L 8.765625 -25.007812 C 8.765625 -24.433594 10.3125 -23.964844 9.882812 -22.886719 L 1.90625 -2.515625 C 1.402344 -1.148438 0.214844 -1.1875 0.214844 -0.503906 L 0.214844 -0.429688 C 0.214844 -0.144531 0.46875 0 0.933594 0 L 4.347656 0 C 4.816406 0 5.101562 -0.144531 5.101562 -0.429688 L 5.101562 -0.503906 C 5.101562 -1.1875 3.378906 -1.257812 3.878906 -2.515625 L 5.460938 -6.753906 L 17.101562 -6.753906 L 18.828125 -2.515625 C 19.296875 -1.257812 17.605469 -1.1875 17.605469 -0.503906 L 17.605469 -0.429688 C 17.605469 -0.144531 17.859375 0 18.289062 0 L 23.355469 0 C 23.785156 0 24.039062 -0.144531 24.039062 -0.429688 L 24.039062 -0.503906 C 24.039062 -1.1875 22.886719 -1.1875 22.3125 -2.515625 Z M 6.074219 -8.300781 L 11.101562 -21.628906 L 16.492188 -8.300781 Z M 6.074219 -8.300781 "/></g></g></g><g fill="#000000" fill-opacity="1"><g transform="translate(306.23483, 158.834249)"><g><path d="M 2.875 0 L 18.503906 0 C 19.042969 0 19.296875 -0.289062 19.402344 -0.828125 L 20.300781 -4.777344 C 20.410156 -5.210938 20.230469 -5.425781 19.90625 -5.425781 L 19.617188 -5.425781 C 18.359375 -5.425781 17.929688 -1.472656 15.84375 -1.472656 L 7.867188 -1.472656 C 7.113281 -1.472656 6.71875 -2.046875 6.71875 -2.875 L 6.71875 -22.996094 C 6.71875 -24.324219 8.121094 -24.289062 8.121094 -25.007812 L 8.121094 -25.078125 C 8.121094 -25.367188 7.832031 -25.511719 7.402344 -25.511719 L 2.875 -25.511719 C 2.441406 -25.511719 2.15625 -25.367188 2.15625 -25.078125 L 2.15625 -25.007812 C 2.15625 -24.289062 3.449219 -24.324219 3.449219 -22.996094 L 3.449219 -2.515625 C 3.449219 -1.257812 2.15625 -1.1875 2.15625 -0.503906 L 2.15625 -0.429688 C 2.15625 -0.179688 2.441406 0 2.875 0 Z M 2.875 0 "/></g></g></g><g fill="#000000" fill-opacity="1"><g transform="translate(328.474259, 158.834249)"><g/></g></g><g fill="#000000" fill-opacity="1"><g transform="translate(339.145359, 158.834249)"><g><path d="M 2.875 0 L 19.042969 0 C 19.617188 0 19.871094 -0.289062 19.976562 -0.828125 L 20.839844 -4.457031 C 20.910156 -4.851562 20.730469 -5.175781 20.410156 -5.175781 L 20.191406 -5.175781 C 18.9375 -5.175781 18.324219 -1.472656 16.421875 -1.472656 L 7.976562 -1.472656 C 7.078125 -1.472656 6.648438 -2.191406 6.648438 -3.019531 L 6.683594 -12.324219 L 13.222656 -12.324219 C 14.589844 -12.324219 14.550781 -10.277344 15.304688 -10.277344 L 15.449219 -10.277344 C 15.738281 -10.277344 15.917969 -10.527344 15.917969 -10.886719 L 15.917969 -15.304688 C 15.917969 -15.703125 15.738281 -15.917969 15.449219 -15.917969 L 15.304688 -15.917969 C 14.550781 -15.917969 14.589844 -13.796875 13.222656 -13.796875 L 6.683594 -13.796875 L 6.683594 -22.816406 C 6.683594 -23.679688 7.042969 -24.039062 7.6875 -24.039062 L 15.304688 -24.039062 C 17.175781 -24.039062 18.039062 -20.445312 19.152344 -20.445312 L 19.332031 -20.445312 C 19.691406 -20.445312 19.871094 -20.660156 19.761719 -21.164062 L 18.898438 -24.71875 C 18.792969 -25.222656 18.578125 -25.511719 18 -25.511719 L 2.765625 -25.511719 C 2.371094 -25.511719 2.121094 -25.367188 2.121094 -25.117188 L 2.121094 -25.007812 C 2.121094 -24.359375 3.449219 -24.324219 3.449219 -22.960938 L 3.449219 -2.550781 C 3.449219 -1.1875 2.121094 -1.1875 2.121094 -0.503906 L 2.121094 -0.429688 C 2.121094 -0.144531 2.441406 0 2.875 0 Z M 2.875 0 "/></g></g></g><g fill="#000000" fill-opacity="1"><g transform="translate(363.289034, 158.834249)"><g><path d="M 24.289062 -25.511719 L 21.019531 -25.511719 C 20.550781 -25.511719 20.265625 -25.332031 20.265625 -25.042969 L 20.265625 -24.972656 C 20.265625 -24.324219 21.738281 -24.289062 21.738281 -22.996094 L 21.738281 -4.167969 L 6.828125 -24.792969 C 6.503906 -25.257812 6.109375 -25.511719 5.535156 -25.511719 L 2.800781 -25.511719 C 2.335938 -25.511719 2.085938 -25.332031 2.085938 -25.042969 L 2.085938 -24.898438 C 2.085938 -24.21875 3.449219 -24.21875 3.449219 -22.960938 L 3.449219 -2.621094 C 3.449219 -1.292969 2.085938 -1.1875 2.085938 -0.503906 L 2.085938 -0.429688 C 2.085938 -0.144531 2.335938 0 2.800781 0 L 6.074219 0 C 6.503906 0 6.828125 -0.144531 6.828125 -0.429688 L 6.828125 -0.503906 C 6.828125 -1.1875 5.28125 -1.292969 5.28125 -2.621094 L 5.28125 -21.847656 L 20.625 -0.933594 C 21.089844 -0.214844 21.414062 0 21.773438 0 L 22.671875 0 C 23.246094 0 23.570312 -0.359375 23.570312 -0.96875 L 23.570312 -22.996094 C 23.570312 -24.289062 25.007812 -24.324219 25.007812 -24.972656 L 25.007812 -25.042969 C 25.007812 -25.332031 24.71875 -25.511719 24.289062 -25.511719 Z M 24.289062 -25.511719 "/></g></g></g><g fill="#000000" fill-opacity="1"><g transform="translate(392.749872, 158.834249)"><g><path d="M 13.761719 0.359375 C 17.5 0.359375 20.480469 -0.753906 22.347656 -2.300781 C 23.066406 -2.875 23.285156 -3.269531 23.285156 -4.023438 L 23.285156 -9.59375 C 23.285156 -11.03125 25.402344 -10.957031 25.402344 -11.570312 L 25.402344 -11.714844 C 25.402344 -12 25.117188 -12.179688 24.683594 -12.179688 L 18.539062 -12.214844 C 18.109375 -12.214844 17.785156 -12.035156 17.785156 -11.714844 L 17.785156 -11.570312 C 17.785156 -10.957031 20.230469 -11.03125 20.230469 -9.59375 L 20.230469 -3.378906 C 18.972656 -2.480469 16.921875 -1.832031 14.625 -1.832031 C 9.378906 -1.832031 4.527344 -7.292969 4.527344 -14.589844 C 4.527344 -20.15625 8.085938 -24.359375 12.433594 -24.359375 C 18.972656 -24.359375 19.042969 -17.679688 21.738281 -17.679688 C 22.671875 -17.679688 23.285156 -18.289062 23.285156 -19.222656 C 23.285156 -21.847656 19.4375 -25.835938 13.367188 -25.835938 C 6.648438 -25.835938 1.328125 -20.589844 1.328125 -12.648438 C 1.328125 -5.605469 7.148438 0.359375 13.761719 0.359375 Z M 13.761719 0.359375 "/></g></g></g><g fill="#000000" fill-opacity="1"><g transform="translate(421.348474, 158.834249)"><g><path d="M 2.15625 -0.429688 C 2.15625 -0.144531 2.441406 0 2.875 0 L 7.367188 0 C 7.796875 0 8.085938 -0.144531 8.085938 -0.429688 L 8.085938 -0.503906 C 8.085938 -1.148438 6.71875 -1.1875 6.71875 -2.480469 L 6.71875 -22.996094 C 6.71875 -24.289062 8.085938 -24.324219 8.085938 -25.007812 L 8.085938 -25.078125 C 8.085938 -25.367188 7.796875 -25.511719 7.367188 -25.511719 L 2.875 -25.511719 C 2.441406 -25.511719 2.15625 -25.367188 2.15625 -25.078125 L 2.15625 -25.007812 C 2.15625 -24.324219 3.449219 -24.289062 3.449219 -22.996094 L 3.449219 -2.480469 C 3.449219 -1.1875 2.15625 -1.148438 2.15625 -0.503906 Z M 2.15625 -0.429688 "/></g></g></g><g fill="#000000" fill-opacity="1"><g transform="translate(434.139254, 158.834249)"><g><path d="M 24.289062 -25.511719 L 21.019531 -25.511719 C 20.550781 -25.511719 20.265625 -25.332031 20.265625 -25.042969 L 20.265625 -24.972656 C 20.265625 -24.324219 21.738281 -24.289062 21.738281 -22.996094 L 21.738281 -4.167969 L 6.828125 -24.792969 C 6.503906 -25.257812 6.109375 -25.511719 5.535156 -25.511719 L 2.800781 -25.511719 C 2.335938 -25.511719 2.085938 -25.332031 2.085938 -25.042969 L 2.085938 -24.898438 C 2.085938 -24.21875 3.449219 -24.21875 3.449219 -22.960938 L 3.449219 -2.621094 C 3.449219 -1.292969 2.085938 -1.1875 2.085938 -0.503906 L 2.085938 -0.429688 C 2.085938 -0.144531 2.335938 0 2.800781 0 L 6.074219 0 C 6.503906 0 6.828125 -0.144531 6.828125 -0.429688 L 6.828125 -0.503906 C 6.828125 -1.1875 5.28125 -1.292969 5.28125 -2.621094 L 5.28125 -21.847656 L 20.625 -0.933594 C 21.089844 -0.214844 21.414062 0 21.773438 0 L 22.671875 0 C 23.246094 0 23.570312 -0.359375 23.570312 -0.96875 L 23.570312 -22.996094 C 23.570312 -24.289062 25.007812 -24.324219 25.007812 -24.972656 L 25.007812 -25.042969 C 25.007812 -25.332031 24.71875 -25.511719 24.289062 -25.511719 Z M 24.289062 -25.511719 "/></g></g></g><g fill="#000000" fill-opacity="1"><g transform="translate(463.671975, 158.834249)"><g><path d="M 2.875 0 L 19.042969 0 C 19.617188 0 19.871094 -0.289062 19.976562 -0.828125 L 20.839844 -4.457031 C 20.910156 -4.851562 20.730469 -5.175781 20.410156 -5.175781 L 20.191406 -5.175781 C 18.9375 -5.175781 18.324219 -1.472656 16.421875 -1.472656 L 7.976562 -1.472656 C 7.078125 -1.472656 6.648438 -2.191406 6.648438 -3.019531 L 6.683594 -12.324219 L 13.222656 -12.324219 C 14.589844 -12.324219 14.550781 -10.277344 15.304688 -10.277344 L 15.449219 -10.277344 C 15.738281 -10.277344 15.917969 -10.527344 15.917969 -10.886719 L 15.917969 -15.304688 C 15.917969 -15.703125 15.738281 -15.917969 15.449219 -15.917969 L 15.304688 -15.917969 C 14.550781 -15.917969 14.589844 -13.796875 13.222656 -13.796875 L 6.683594 -13.796875 L 6.683594 -22.816406 C 6.683594 -23.679688 7.042969 -24.039062 7.6875 -24.039062 L 15.304688 -24.039062 C 17.175781 -24.039062 18.039062 -20.445312 19.152344 -20.445312 L 19.332031 -20.445312 C 19.691406 -20.445312 19.871094 -20.660156 19.761719 -21.164062 L 18.898438 -24.71875 C 18.792969 -25.222656 18.578125 -25.511719 18 -25.511719 L 2.765625 -25.511719 C 2.371094 -25.511719 2.121094 -25.367188 2.121094 -25.117188 L 2.121094 -25.007812 C 2.121094 -24.359375 3.449219 -24.324219 3.449219 -22.960938 L 3.449219 -2.550781 C 3.449219 -1.1875 2.121094 -1.1875 2.121094 -0.503906 L 2.121094 -0.429688 C 2.121094 -0.144531 2.441406 0 2.875 0 Z M 2.875 0 "/></g></g></g><g fill="#000000" fill-opacity="1"><g transform="translate(487.815639, 158.834249)"><g><path d="M 2.875 0 L 19.042969 0 C 19.617188 0 19.871094 -0.289062 19.976562 -0.828125 L 20.839844 -4.457031 C 20.910156 -4.851562 20.730469 -5.175781 20.410156 -5.175781 L 20.191406 -5.175781 C 18.9375 -5.175781 18.324219 -1.472656 16.421875 -1.472656 L 7.976562 -1.472656 C 7.078125 -1.472656 6.648438 -2.191406 6.648438 -3.019531 L 6.683594 -12.324219 L 13.222656 -12.324219 C 14.589844 -12.324219 14.550781 -10.277344 15.304688 -10.277344 L 15.449219 -10.277344 C 15.738281 -10.277344 15.917969 -10.527344 15.917969 -10.886719 L 15.917969 -15.304688 C 15.917969 -15.703125 15.738281 -15.917969 15.449219 -15.917969 L 15.304688 -15.917969 C 14.550781 -15.917969 14.589844 -13.796875 13.222656 -13.796875 L 6.683594 -13.796875 L 6.683594 -22.816406 C 6.683594 -23.679688 7.042969 -24.039062 7.6875 -24.039062 L 15.304688 -24.039062 C 17.175781 -24.039062 18.039062 -20.445312 19.152344 -20.445312 L 19.332031 -20.445312 C 19.691406 -20.445312 19.871094 -20.660156 19.761719 -21.164062 L 18.898438 -24.71875 C 18.792969 -25.222656 18.578125 -25.511719 18 -25.511719 L 2.765625 -25.511719 C 2.371094 -25.511719 2.121094 -25.367188 2.121094 -25.117188 L 2.121094 -25.007812 C 2.121094 -24.359375 3.449219 -24.324219 3.449219 -22.960938 L 3.449219 -2.550781 C 3.449219 -1.1875 2.121094 -1.1875 2.121094 -0.503906 L 2.121094 -0.429688 C 2.121094 -0.144531 2.441406 0 2.875 0 Z M 2.875 0 "/></g></g></g><g fill="#000000" fill-opacity="1"><g transform="translate(511.962505, 158.834249)"><g><path d="M 22.671875 -3.917969 L 18.398438 -10.636719 C 21.414062 -12.074219 22.886719 -14.769531 22.886719 -17.390625 C 22.851562 -22.78125 18.578125 -25.511719 12 -25.511719 L 2.335938 -25.511719 C 1.832031 -25.511719 1.472656 -25.257812 1.472656 -24.828125 L 1.472656 -24.683594 C 1.472656 -23.679688 2.910156 -23.246094 2.910156 -21.59375 L 2.910156 -3.917969 C 2.910156 -2.261719 1.472656 -1.832031 1.472656 -0.828125 L 1.472656 -0.683594 C 1.472656 -0.25 1.832031 0 2.335938 0 L 10.242188 0 C 10.742188 0 11.101562 -0.25 11.101562 -0.683594 L 11.101562 -0.828125 C 11.101562 -1.832031 9.484375 -2.261719 9.484375 -3.917969 L 9.484375 -9.523438 L 12.792969 -9.59375 L 15.84375 -3.917969 C 16.742188 -2.15625 14.949219 -1.832031 14.949219 -0.828125 L 14.949219 -0.683594 C 14.949219 -0.25 15.304688 0 15.808594 0 L 24.578125 0 C 25.117188 0 25.4375 -0.25 25.4375 -0.683594 L 25.4375 -0.828125 C 25.4375 -1.832031 23.929688 -1.976562 22.671875 -3.917969 Z M 9.484375 -14.839844 L 9.484375 -21.128906 C 9.484375 -22.207031 10.023438 -22.996094 10.851562 -22.996094 L 11.496094 -22.996094 C 13.691406 -22.996094 16.097656 -20.589844 16.097656 -16.707031 C 16.097656 -13.4375 14.625 -12.074219 12.828125 -12.074219 L 11.75 -12.074219 C 10.277344 -12.074219 9.484375 -12.753906 9.484375 -14.839844 Z M 9.484375 -14.839844 "/></g></g></g><g fill="#000000" fill-opacity="1"><g transform="translate(539.782135, 158.834249)"><g><path d="M 2.15625 -0.429688 C 2.15625 -0.144531 2.441406 0 2.875 0 L 7.367188 0 C 7.796875 0 8.085938 -0.144531 8.085938 -0.429688 L 8.085938 -0.503906 C 8.085938 -1.148438 6.71875 -1.1875 6.71875 -2.480469 L 6.71875 -22.996094 C 6.71875 -24.289062 8.085938 -24.324219 8.085938 -25.007812 L 8.085938 -25.078125 C 8.085938 -25.367188 7.796875 -25.511719 7.367188 -25.511719 L 2.875 -25.511719 C 2.441406 -25.511719 2.15625 -25.367188 2.15625 -25.078125 L 2.15625 -25.007812 C 2.15625 -24.324219 3.449219 -24.289062 3.449219 -22.996094 L 3.449219 -2.480469 C 3.449219 -1.1875 2.15625 -1.148438 2.15625 -0.503906 Z M 2.15625 -0.429688 "/></g></g></g><g fill="#000000" fill-opacity="1"><g transform="translate(552.572926, 158.834249)"><g><path d="M 24.289062 -25.511719 L 21.019531 -25.511719 C 20.550781 -25.511719 20.265625 -25.332031 20.265625 -25.042969 L 20.265625 -24.972656 C 20.265625 -24.324219 21.738281 -24.289062 21.738281 -22.996094 L 21.738281 -4.167969 L 6.828125 -24.792969 C 6.503906 -25.257812 6.109375 -25.511719 5.535156 -25.511719 L 2.800781 -25.511719 C 2.335938 -25.511719 2.085938 -25.332031 2.085938 -25.042969 L 2.085938 -24.898438 C 2.085938 -24.21875 3.449219 -24.21875 3.449219 -22.960938 L 3.449219 -2.621094 C 3.449219 -1.292969 2.085938 -1.1875 2.085938 -0.503906 L 2.085938 -0.429688 C 2.085938 -0.144531 2.335938 0 2.800781 0 L 6.074219 0 C 6.503906 0 6.828125 -0.144531 6.828125 -0.429688 L 6.828125 -0.503906 C 6.828125 -1.1875 5.28125 -1.292969 5.28125 -2.621094 L 5.28125 -21.847656 L 20.625 -0.933594 C 21.089844 -0.214844 21.414062 0 21.773438 0 L 22.671875 0 C 23.246094 0 23.570312 -0.359375 23.570312 -0.96875 L 23.570312 -22.996094 C 23.570312 -24.289062 25.007812 -24.324219 25.007812 -24.972656 L 25.007812 -25.042969 C 25.007812 -25.332031 24.71875 -25.511719 24.289062 -25.511719 Z M 24.289062 -25.511719 "/></g></g></g><g fill="#000000" fill-opacity="1"><g transform="translate(582.033764, 158.834249)"><g><path d="M 13.761719 0.359375 C 17.5 0.359375 20.480469 -0.753906 22.347656 -2.300781 C 23.066406 -2.875 23.285156 -3.269531 23.285156 -4.023438 L 23.285156 -9.59375 C 23.285156 -11.03125 25.402344 -10.957031 25.402344 -11.570312 L 25.402344 -11.714844 C 25.402344 -12 25.117188 -12.179688 24.683594 -12.179688 L 18.539062 -12.214844 C 18.109375 -12.214844 17.785156 -12.035156 17.785156 -11.714844 L 17.785156 -11.570312 C 17.785156 -10.957031 20.230469 -11.03125 20.230469 -9.59375 L 20.230469 -3.378906 C 18.972656 -2.480469 16.921875 -1.832031 14.625 -1.832031 C 9.378906 -1.832031 4.527344 -7.292969 4.527344 -14.589844 C 4.527344 -20.15625 8.085938 -24.359375 12.433594 -24.359375 C 18.972656 -24.359375 19.042969 -17.679688 21.738281 -17.679688 C 22.671875 -17.679688 23.285156 -18.289062 23.285156 -19.222656 C 23.285156 -21.847656 19.4375 -25.835938 13.367188 -25.835938 C 6.648438 -25.835938 1.328125 -20.589844 1.328125 -12.648438 C 1.328125 -5.605469 7.148438 0.359375 13.761719 0.359375 Z M 13.761719 0.359375 "/></g></g></g></g></g></g></g></g></g></mask><clipPath id="158c4077d1"><path d="M 51.042969 1.605469 L 718.035156 1.605469 L 718.035156 190 L 51.042969 190 Z M 51.042969 1.605469 " clip-rule="nonzero"/></clipPath><clipPath id="ad05f4fe26"><rect x="0" width="719" y="0" height="190"/></clipPath><clipPath id="9ceaf8cce6"><rect x="0" width="719" y="0" height="190"/></clipPath></defs><g transform="matrix(1, 0, 0, 1, 2, 136)"><g clip-path="url(#0674b1941b)"><g clip-path="url(#b8da451e73)"><path fill="#ff8f22" d="M 74.894531 123.199219 C 60.386719 82.203125 45.914062 41.324219 31.433594 0.402344 C 21.601562 0.402344 11.78125 0.402344 1.800781 0.402344 C 2.683594 2.890625 3.546875 5.339844 4.414062 7.789062 C 17.851562 45.765625 31.296875 83.742188 44.703125 121.726562 C 45.109375 122.871094 45.574219 123.226562 46.773438 123.226562 C 55.660156 123.164062 64.558594 123.195312 73.453125 123.195312 L 74.894531 123.195312 " fill-opacity="1" fill-rule="nonzero"/></g></g></g><path fill="#1097af" d="M 48.414062 259.195312 C 62.929688 218.175781 77.40625 177.28125 91.898438 136.34375 C 101.730469 136.339844 111.554688 136.339844 121.539062 136.339844 C 120.660156 138.832031 119.792969 141.28125 118.925781 143.730469 C 105.480469 181.726562 92.035156 219.71875 78.621094 257.722656 C 78.214844 258.863281 77.75 259.222656 76.546875 259.222656 C 67.65625 259.160156 58.753906 259.191406 49.855469 259.191406 L 48.414062 259.191406 " fill-opacity="1" fill-rule="nonzero"/><path fill="#1097af" d="M 75.5 182.523438 C 90.007812 141.527344 104.476562 100.644531 118.960938 59.726562 C 128.789062 59.726562 138.609375 59.726562 148.589844 59.726562 C 147.710938 62.214844 146.84375 64.664062 145.976562 67.113281 C 132.539062 105.089844 119.097656 143.066406 105.691406 181.050781 C 105.285156 182.195312 104.820312 182.550781 103.617188 182.550781 C 94.730469 182.488281 85.832031 182.519531 76.9375 182.519531 L 75.5 182.519531 " fill-opacity="1" fill-rule="nonzero"/><g clip-path="url(#d796f1d431)"><g transform="matrix(1, 0, 0, 1, 118, 59)"><g clip-path="url(#934ca43bfd)"><g clip-path="url(#2e22e1e185)"><path fill="#00daf2" d="M 74.878906 123.523438 C 60.367188 82.527344 45.898438 41.644531 31.414062 0.726562 C 21.585938 0.726562 11.765625 0.726562 1.785156 0.726562 C 2.664062 3.214844 3.53125 5.664062 4.398438 8.113281 C 17.835938 46.089844 31.277344 84.066406 44.683594 122.050781 C 45.09375 123.195312 45.558594 123.550781 46.757812 123.550781 C 55.644531 123.488281 64.542969 123.519531 73.4375 123.519531 L 74.878906 123.519531 " fill-opacity="1" fill-rule="nonzero"/></g></g></g></g><g clip-path="url(#e590caf8a4)"><g transform="matrix(1, 0, 0, 1, 118, 136)"><g clip-path="url(#0640427e6d)"><g clip-path="url(#6a0b094cdb)"><path fill="#00daf2" d="M 74.878906 46.457031 C 60.367188 5.457031 45.898438 -35.421875 31.414062 -76.339844 C 21.585938 -76.34375 11.765625 -76.34375 1.785156 -76.34375 C 2.664062 -73.855469 3.53125 -71.40625 4.398438 -68.957031 C 17.835938 -30.976562 31.277344 6.996094 44.683594 44.984375 C 45.09375 46.125 45.558594 46.484375 46.757812 46.484375 C 55.644531 46.417969 64.542969 46.449219 73.4375 46.449219 L 74.878906 46.449219 " fill-opacity="1" fill-rule="nonzero"/></g></g></g></g><g clip-path="url(#6260064de5)"><g transform="matrix(1, 0, 0, 1, 136, 0)"><g clip-path="url(#2ec4ea3ba6)"><g clip-path="url(#d46304f2e0)"><g transform="matrix(1, 0, 0, 1, -0.000000000000028422, 0)"><g clip-path="url(#21f561ae5b)"><g clip-path="url(#9146450164)"><g mask="url(#ccea9fc8e9)"><g transform="matrix(1, 0, 0, 1, -0.000000000000028422, 0)"><g clip-path="url(#756a0b5349)"><g clip-path="url(#c7098f6ade)"><path fill="url(#8004cc6501)" d="M 71.433594 0 L 71.433594 292 L 849.035156 292 L 849.035156 0 Z M 71.433594 0 " fill-rule="nonzero"/></g></g></g></g></g></g></g></g></g></g></g><g clip-path="url(#71a7709e65)"><g transform="matrix(1, 0, 0, 1, 267, 102)"><g clip-path="url(#9ceaf8cce6)"><g clip-path="url(#46d842fe49)"><g mask="url(#c6c8e73ac3)"><g transform="matrix(1, 0, 0, 1, -0.000000000000056843, -0.000000000000028422)"><g clip-path="url(#ad05f4fe26)"><g clip-path="url(#158c4077d1)"><path fill="url(#9dc974e136)" d="M 51.042969 1.605469 L 51.042969 190 L 718.035156 190 L 718.035156 1.605469 Z M 51.042969 1.605469 " fill-rule="nonzero"/></g></g></g></g></g></g></g></g><path stroke-linecap="round" transform="matrix(0, 0.74872, -0.74872, 0, 268.080576, 27.169458)" fill="none" stroke-linejoin="miter" d="M 2.502285 2.502331 L 351.112833 2.502331 " stroke="#1097af" stroke-width="5" stroke-opacity="1" stroke-miterlimit="4"/></svg>